<svg width="176" height="152" viewBox="0 0 176 152" fill="none" xmlns="http://www.w3.org/2000/svg">
<path d="M73.45 128.458C75.2435 103.648 72.3739 55.4017 46.5471 60.9019C20.7202 66.402 19.6441 97.47 22.3344 112.316C24.7258 120.985 38.4164 116.98 27.4161 89.0006" stroke="#F5F5F4" stroke-width="2" stroke-linecap="round"/>
<path d="M18.4486 86.0116C11.1748 85.8124 -5.81223 93.3639 4.39924 118.893C17.5517 151.775 85.1081 170.606 104.837 118.893" stroke="#F5F5F4" stroke-width="2" stroke-linecap="round"/>
<path d="M122.473 103.051C117.391 97.0723 111.712 103.051 106.331 97.0723V112.15C107.288 114.541 109.534 112.15 110.815 111.122L122.473 103.051Z" fill="#F5F5F4" stroke="#F5F5F4" stroke-width="2" stroke-linecap="round"/>
<path d="M133.533 94.9797L114.237 108.762C110.928 111.126 106.331 108.76 106.331 104.694V78.8379" stroke="#F5F5F4" stroke-width="2" stroke-linecap="round"/>
<path d="M118.587 71.9624L138.017 32.8037" stroke="#F5F5F4" stroke-width="2" stroke-linecap="round"/>
<path d="M148.181 33.4023L126.061 78.5395" stroke="#F5F5F4" stroke-width="2" stroke-linecap="round"/>
<path d="M155.355 42.3691L136.224 80.93" stroke="#F5F5F4" stroke-width="2" stroke-linecap="round"/>
<path d="M130.544 29.2168L107.902 75.3613C107.523 76.1332 108.244 77.0377 109.1 76.9578C112.581 76.6326 117.112 77.5662 118.099 82.7201C118.247 83.4915 119.147 83.9651 119.854 83.6234C122.907 82.148 126.978 81.6925 127.52 87.3135C127.604 88.1815 128.669 88.7248 129.422 88.284C131.607 87.0041 134.224 86.3624 135.483 88.7047C135.991 89.6506 137.772 90.0347 138.245 89.0708L161.035 42.6683" stroke="#F5F5F4" stroke-width="2" stroke-linecap="round"/>
<path d="M158.045 1.41715C148.001 -0.256811 143.298 3.5096 142.202 5.60205L136.702 16.3403C136.354 17.0201 136.864 17.8305 137.628 17.8435C145.833 17.9831 160.422 20.9995 166.047 30.8308C166.473 31.5756 167.611 31.6063 167.995 30.8388L168.806 29.2169L174.611 17.3177C174.722 17.0886 174.744 16.8269 174.662 16.5856C173.099 11.9736 167.816 3.0457 158.045 1.41715Z" fill="#F5F5F4" stroke="#F5F5F4" stroke-width="2" stroke-linecap="round"/>
<path d="M166.714 33.1031L162.97 40.1514C162.526 40.9861 161.12 40.8346 160.712 39.9822C158.102 34.5357 150.234 26.9074 133.613 26.2671C132.882 26.2389 132.402 25.4726 132.718 24.8133L135.626 18.7549" stroke="#F5F5F4" stroke-width="2" stroke-linecap="round"/>
<path d="M137.419 22.6411C141.504 22.0433 152.006 23.1195 161.333 32.2066" stroke="#F5F5F4" stroke-width="2" stroke-linecap="round"/>
</svg>
