<svg width="444" height="302" viewBox="0 0 444 302" fill="none" xmlns="http://www.w3.org/2000/svg">
<path d="M204.619 152.21C209.158 147.656 218.308 139.914 218.594 145.379C218.953 152.21 209.994 169.827 218.594 161.917C227.195 154.008 237.587 139.987 238.303 145.379C239.02 150.772 240.095 152.21 250.129 142.503" stroke="#F5F5F4" stroke-width="2" stroke-linecap="round"/>
<path d="M30.4849 230.092C32.1588 232.368 37.5154 236.801 45.5503 236.319" stroke="#F5F5F4" stroke-width="2" stroke-linecap="round"/>
<path d="M131.322 240.136C123.422 244.451 100.385 248.542 71.0183 230.758C70.5872 230.497 70.0226 230.587 69.6959 230.971C63.9276 237.752 47.8381 251.484 26.8689 253.192C20.6418 253.7 16.2227 250.581 23.454 247.97C27.4716 246.519 30.4847 245.559 31.8906 244.153" stroke="#F5F5F4" stroke-width="2" stroke-linecap="round"/>
<path d="M20.2401 249.778C16.2227 251.653 11 252.911 10.1965 249.376C9.19216 244.957 16.4235 245.76 19.2357 243.551" stroke="#F5F5F4" stroke-width="2" stroke-linecap="round"/>
<path d="M9.59449 249.576C2.76489 251.585 -0.404666 245.537 5.5771 242.546C11.2015 239.733 16.0224 240.738 19.6381 236.52" stroke="#F5F5F4" stroke-width="2" stroke-linecap="round"/>
<path d="M3.56816 243.952C2.02814 242.613 0.19351 239.171 5.17514 236.118C11.4022 232.301 40.5287 219.446 36.913 209.201C35.8496 206.188 30.0833 206.39 25.2624 200.162C21.6816 195.537 25.2624 190.119 29.6816 193.132C30.8199 194.002 37.837 198.555 41.533 196.948C46.1246 194.952 61.2316 193.154 72.0654 206.737C72.1952 206.9 72.3668 207.022 72.5667 207.08C81.5495 209.689 101.174 213.441 110.231 208.197" stroke="#F5F5F4" stroke-width="2" stroke-linecap="round"/>
<path d="M41.9351 215.629C44.4125 217.973 51.3761 218.843 55.7953 214.625" stroke="#F5F5F4" stroke-width="2" stroke-linecap="round"/>
<path d="M413.515 227.703C411.841 229.98 406.485 234.412 398.45 233.93" stroke="#F5F5F4" stroke-width="2" stroke-linecap="round"/>
<path d="M312.677 237.747C320.577 242.062 343.614 246.153 372.981 228.369C373.412 228.108 373.976 228.198 374.303 228.582C380.071 235.363 396.161 249.095 417.13 250.804C423.357 251.311 427.776 248.192 420.545 245.581C416.527 244.13 413.514 243.171 412.108 241.764" stroke="#F5F5F4" stroke-width="2" stroke-linecap="round"/>
<path d="M423.76 247.389C427.777 249.264 433 250.523 433.803 246.987C434.808 242.568 427.576 243.372 424.764 241.162" stroke="#F5F5F4" stroke-width="2" stroke-linecap="round"/>
<path d="M434.406 247.188C441.235 249.196 444.405 243.148 438.423 240.157C432.798 237.345 427.978 238.349 424.362 234.131" stroke="#F5F5F4" stroke-width="2" stroke-linecap="round"/>
<path d="M440.432 241.562C441.972 240.223 443.806 236.782 438.825 233.728C432.598 229.912 403.471 217.056 407.087 206.811C408.15 203.799 413.917 204 418.738 197.773C422.318 193.147 418.738 187.729 414.318 190.742C413.18 191.613 406.163 196.166 402.467 194.559C397.875 192.562 382.768 190.764 371.935 204.348C371.805 204.511 371.633 204.632 371.433 204.69C362.451 207.3 342.826 211.051 333.769 205.808" stroke="#F5F5F4" stroke-width="2" stroke-linecap="round"/>
<path d="M402.065 213.24C399.588 215.583 392.624 216.454 388.205 212.235" stroke="#F5F5F4" stroke-width="2" stroke-linecap="round"/>
<path d="M200.508 69.7119C202.024 87.004 209.785 117.501 228.63 118.683C248.481 119.928 256.752 79.6722 256.752 69.2969" stroke="#F5F5F4" stroke-width="2" stroke-linecap="round"/>
<path d="M204.123 68.8953L198.499 68.0918" stroke="#F5F5F4" stroke-width="2" stroke-linecap="round"/>
<path d="M258.884 68.0918C264.976 69.6238 269.767 76.281 255.146 88.9825" stroke="#F5F5F4" stroke-width="2" stroke-linecap="round"/>
<path d="M197.871 68.0918C192.561 68.7882 186.971 76.8659 203.32 88.9825" stroke="#F5F5F4" stroke-width="2" stroke-linecap="round"/>
<path d="M217.185 71.5066C217.185 72.7872 216.069 73.9215 214.569 73.9215C213.07 73.9215 211.954 72.7872 211.954 71.5066C211.954 70.226 213.07 69.0918 214.569 69.0918C216.069 69.0918 217.185 70.226 217.185 71.5066Z" fill="#F5F5F4" stroke="#F5F5F4" stroke-width="2"/>
<circle cx="242.089" cy="71.5066" r="2.41483" fill="#F5F5F4" stroke="#F5F5F4" stroke-width="2"/>
<circle cx="214.971" cy="71.3047" r="11.4541" stroke="#F5F5F4" stroke-width="2"/>
<path d="M252.94 71.3047C252.94 77.646 247.887 82.7588 241.687 82.7588C235.487 82.7588 230.434 77.646 230.434 71.3047C230.434 64.9634 235.487 59.8506 241.687 59.8506C247.887 59.8506 252.94 64.9634 252.94 71.3047Z" stroke="#F5F5F4" stroke-width="2"/>
<path d="M225.818 70.0996H230.639" stroke="#F5F5F4" stroke-width="2" stroke-linecap="round"/>
<path d="M223.868 77.7334C222.823 83.5251 222.707 93.1411 233.049 87.8459" stroke="#F5F5F4" stroke-width="2" stroke-linecap="round"/>
<path d="M221.399 100.23C223.609 99.0178 229.354 97.3201 234.657 100.23" stroke="#F5F5F4" stroke-width="2" stroke-linecap="round"/>
<path d="M251.932 68.0918H258.762" stroke="#F5F5F4" stroke-width="2" stroke-linecap="round"/>
<path d="M197.145 34.5559C176.065 44.4818 185.892 61.8522 193.44 69.2966C194.757 68.304 198.929 68.0559 200.85 68.0559C197.227 41.5868 210.869 34.5557 216.907 32.9014C233.787 30.0063 253.138 34.5559 256.431 47.7905C260.366 63.6004 260.49 68.883 263.548 69.2966C275.17 60.0324 273.457 42.2761 271.147 34.5559C274.16 25.9325 267.43 18.1506 263.548 13.4634C259.666 8.77612 249.021 0.228577 230.082 1.05596C192.616 4.77818 195.086 27.9386 197.145 34.5559Z" fill="#F5F5F4" stroke="#F5F5F4" stroke-width="2" stroke-linecap="round"/>
<path d="M207.739 54.8344C209.447 54.5312 214.569 54.1068 221.399 54.8344" stroke="#F5F5F4" stroke-width="2" stroke-linecap="round"/>
<path d="M235.862 55.6375C237.469 55.0311 242.29 54.1823 248.718 55.6375" stroke="#F5F5F4" stroke-width="2" stroke-linecap="round"/>
<path d="M210.065 116.8C170.293 113.988 160.49 108.324 131.725 177.263" stroke="#F5F5F4" stroke-width="2" stroke-linecap="round"/>
<path d="M248.599 115.35C282.747 121.375 299.219 100.485 321.717 169.384" stroke="#F5F5F4" stroke-width="2" stroke-linecap="round"/>
<path d="M155.629 220.852C151.572 240.234 139.004 242.278 132.078 240.711C131.406 240.559 131.172 239.748 131.569 239.185C145.505 219.428 123.317 204.862 111.212 208.089C110.667 208.234 110.073 207.95 109.967 207.397C108.511 199.845 121.051 198.295 122.284 187.507C122.927 181.882 123.69 179.005 126.904 178.869C141.166 178.267 161.052 194.939 155.629 220.852Z" stroke="#F5F5F4" stroke-width="2" stroke-linecap="round"/>
<path d="M324.529 171.995C327.852 187.439 338.406 195.082 334.895 205.294C334.728 205.78 334.178 206.022 333.683 205.886C309.617 199.277 303.702 225.876 312.448 236.019C313.059 236.728 312.652 237.944 311.721 237.852C295.21 236.213 282.957 208.77 286.765 198.108C297.813 167.174 323.362 166.571 324.529 171.995Z" stroke="#F5F5F4" stroke-width="2" stroke-linecap="round"/>
<path d="M291.787 223.218C291.653 249.8 292.148 277.493 296.005 299.348" stroke="#F5F5F4" stroke-width="2" stroke-linecap="round"/>
<path d="M156.432 218.441C156.7 244.689 155.91 274.806 151.41 301" stroke="#F5F5F4" stroke-width="2" stroke-linecap="round"/>
<path d="M231.113 129.654C236.45 128.993 241.288 126.568 244.107 124.53C244.847 122.31 244.844 120.512 244.528 119.232C244.299 118.306 243.927 117.708 243.591 117.367C238.669 121.43 232.636 122.691 227.166 122.322C222.044 121.977 217.291 120.195 214.287 117.804C214.234 117.951 214.187 118.116 214.149 118.301C214.023 118.91 214.004 119.642 214.069 120.414C214.192 121.891 214.602 123.315 214.921 123.997C219.813 129.181 225.696 130.325 231.113 129.654Z" fill="#F5F5F4" stroke="#F5F5F4" stroke-width="2"/>
</svg>
