<svg width="444" height="301" viewBox="0 0 444 301" fill="none" xmlns="http://www.w3.org/2000/svg">
<path d="M204.619 151.21C209.158 146.656 218.308 138.914 218.594 144.379C218.953 151.21 209.994 168.827 218.594 160.917C227.195 153.008 237.587 138.987 238.303 144.379C239.02 149.772 240.095 151.21 250.129 141.503" stroke="black" stroke-width="2" stroke-linecap="round"/>
<path d="M30.4849 229.092C32.1588 231.368 37.5154 235.801 45.5503 235.319" stroke="black" stroke-width="2" stroke-linecap="round"/>
<path d="M131.322 239.136C123.422 243.451 100.385 247.542 71.0183 229.758C70.5872 229.497 70.0226 229.587 69.6959 229.971C63.9276 236.752 47.8381 250.484 26.8689 252.192C20.6418 252.7 16.2227 249.581 23.454 246.97C27.4716 245.519 30.4847 244.559 31.8906 243.153" stroke="black" stroke-width="2" stroke-linecap="round"/>
<path d="M20.2401 248.778C16.2227 250.653 11 251.911 10.1965 248.376C9.19216 243.957 16.4235 244.76 19.2357 242.551" stroke="black" stroke-width="2" stroke-linecap="round"/>
<path d="M9.59449 248.576C2.76489 250.585 -0.404666 244.537 5.5771 241.546C11.2015 238.733 16.0224 239.738 19.6381 235.52" stroke="black" stroke-width="2" stroke-linecap="round"/>
<path d="M3.56816 242.952C2.02814 241.613 0.19351 238.171 5.17514 235.118C11.4022 231.301 40.5287 218.446 36.913 208.201C35.8496 205.188 30.0833 205.39 25.2624 199.162C21.6816 194.537 25.2624 189.119 29.6816 192.132C30.8199 193.002 37.837 197.555 41.533 195.948C46.1246 193.952 61.2316 192.154 72.0654 205.737C72.1952 205.9 72.3668 206.022 72.5667 206.08C81.5495 208.689 101.174 212.441 110.231 207.197" stroke="black" stroke-width="2" stroke-linecap="round"/>
<path d="M41.9351 214.629C44.4125 216.973 51.3761 217.843 55.7953 213.625" stroke="black" stroke-width="2" stroke-linecap="round"/>
<path d="M413.515 226.703C411.841 228.98 406.485 233.412 398.45 232.93" stroke="black" stroke-width="2" stroke-linecap="round"/>
<path d="M312.677 236.747C320.577 241.062 343.614 245.153 372.981 227.369C373.412 227.108 373.976 227.198 374.303 227.582C380.071 234.363 396.161 248.095 417.13 249.804C423.357 250.311 427.776 247.192 420.545 244.581C416.527 243.13 413.514 242.171 412.108 240.764" stroke="black" stroke-width="2" stroke-linecap="round"/>
<path d="M423.76 246.389C427.777 248.264 433 249.523 433.803 245.987C434.808 241.568 427.576 242.372 424.764 240.162" stroke="black" stroke-width="2" stroke-linecap="round"/>
<path d="M434.406 246.188C441.235 248.196 444.405 242.148 438.423 239.157C432.798 236.345 427.978 237.349 424.362 233.131" stroke="black" stroke-width="2" stroke-linecap="round"/>
<path d="M440.432 240.562C441.972 239.223 443.806 235.782 438.825 232.728C432.598 228.912 403.471 216.056 407.087 205.811C408.15 202.799 413.917 203 418.738 196.773C422.318 192.147 418.738 186.729 414.318 189.742C413.18 190.613 406.163 195.166 402.467 193.559C397.875 191.562 382.768 189.764 371.935 203.348C371.805 203.511 371.633 203.632 371.433 203.69C362.451 206.3 342.826 210.051 333.769 204.808" stroke="black" stroke-width="2" stroke-linecap="round"/>
<path d="M402.065 212.24C399.588 214.583 392.624 215.454 388.205 211.235" stroke="black" stroke-width="2" stroke-linecap="round"/>
<path d="M200.508 68.7119C202.024 86.004 209.785 116.501 228.63 117.683C248.481 118.928 256.752 78.6722 256.752 68.2969" stroke="black" stroke-width="2" stroke-linecap="round"/>
<path d="M204.123 67.8953L198.499 67.0918" stroke="black" stroke-width="2" stroke-linecap="round"/>
<path d="M258.884 67.0918C264.976 68.6238 269.767 75.281 255.146 87.9825" stroke="black" stroke-width="2" stroke-linecap="round"/>
<path d="M197.871 67.0918C192.561 67.7882 186.971 75.8659 203.32 87.9825" stroke="black" stroke-width="2" stroke-linecap="round"/>
<ellipse cx="214.569" cy="70.5066" rx="3.6157" ry="3.41483" fill="black"/>
<circle cx="242.089" cy="70.5066" r="3.41483" fill="black"/>
<circle cx="214.971" cy="70.3047" r="11.4541" stroke="black" stroke-width="2"/>
<path d="M252.94 70.3047C252.94 76.646 247.887 81.7588 241.687 81.7588C235.487 81.7588 230.434 76.646 230.434 70.3047C230.434 63.9634 235.487 58.8506 241.687 58.8506C247.887 58.8506 252.94 63.9634 252.94 70.3047Z" stroke="black" stroke-width="2"/>
<path d="M225.818 69.0996H230.639" stroke="black" stroke-width="2" stroke-linecap="round"/>
<path d="M223.868 76.7334C222.823 82.5251 222.707 92.1411 233.049 86.8459" stroke="black" stroke-width="2" stroke-linecap="round"/>
<path d="M221.399 99.2305C223.609 98.0178 229.354 96.3201 234.657 99.2305" stroke="black" stroke-width="2" stroke-linecap="round"/>
<path d="M251.932 67.0918H258.762" stroke="black" stroke-width="2" stroke-linecap="round"/>
<path d="M197.145 33.5559C176.065 43.4818 185.892 60.8522 193.44 68.2966C194.757 67.304 198.929 67.0559 200.85 67.0559C197.227 40.5868 210.869 33.5557 216.907 31.9014C233.787 29.0063 253.138 33.5559 256.431 46.7905C260.366 62.6004 260.49 67.883 263.548 68.2966C275.17 59.0324 273.457 41.2761 271.147 33.5559C274.16 24.9325 267.43 17.1506 263.548 12.4634C259.666 7.77612 249.021 -0.771423 230.082 0.0559613C192.616 3.77818 195.086 26.9386 197.145 33.5559Z" fill="black"/>
<path d="M207.739 53.8344C209.447 53.5312 214.569 53.1068 221.399 53.8344" stroke="black" stroke-width="2" stroke-linecap="round"/>
<path d="M235.862 54.6375C237.469 54.0311 242.29 53.1823 248.718 54.6375" stroke="black" stroke-width="2" stroke-linecap="round"/>
<path d="M210.065 115.8C170.293 112.988 160.49 107.324 131.725 176.263" stroke="black" stroke-width="2" stroke-linecap="round"/>
<path d="M248.599 114.35C282.747 120.375 299.219 99.4847 321.717 168.384" stroke="black" stroke-width="2" stroke-linecap="round"/>
<path d="M155.629 219.852C151.572 239.234 139.004 241.278 132.078 239.711C131.406 239.559 131.172 238.748 131.569 238.185C145.505 218.428 123.317 203.862 111.212 207.089C110.667 207.234 110.073 206.95 109.967 206.397C108.511 198.845 121.051 197.295 122.284 186.507C122.927 180.882 123.69 178.005 126.904 177.869C141.166 177.267 161.052 193.939 155.629 219.852Z" stroke="black" stroke-width="2" stroke-linecap="round"/>
<path d="M324.529 170.995C327.852 186.439 338.406 194.082 334.895 204.294C334.728 204.78 334.178 205.022 333.683 204.886C309.617 198.277 303.702 224.876 312.448 235.019C313.059 235.728 312.652 236.944 311.721 236.852C295.21 235.213 282.957 207.77 286.765 197.108C297.813 166.174 323.362 165.571 324.529 170.995Z" stroke="black" stroke-width="2" stroke-linecap="round"/>
<path d="M291.787 222.218C291.653 248.8 292.148 276.493 296.005 298.348" stroke="black" stroke-width="2" stroke-linecap="round"/>
<path d="M156.432 217.441C156.7 243.689 155.91 273.806 151.41 300" stroke="black" stroke-width="2" stroke-linecap="round"/>
<path d="M244.95 124.151C246.738 119.134 245.103 115.757 243.517 115.114C233.958 123.606 219.46 120.453 214.09 115.307C212.176 117.005 213.289 122.029 214.09 123.573C224.441 134.688 239.176 128.462 244.95 124.151Z" fill="black"/>
</svg>
