<svg width="172" height="160" viewBox="0 0 172 160" fill="none" xmlns="http://www.w3.org/2000/svg">
<g id="Component 3">
<g id="Rectangle 2" style="mix-blend-mode:darken" filter="url(#filter0_d_404_41)">
<path d="M0 48C0 25.9086 17.9086 8 40 8H132C154.091 8 172 25.9086 172 48V120C172 142.091 154.091 160 132 160H40C17.9086 160 0 142.091 0 120V48Z" fill="#22201B"/>
<path d="M0 48C0 25.9086 17.9086 8 40 8H132C154.091 8 172 25.9086 172 48V120C172 142.091 154.091 160 132 160H40C17.9086 160 0 142.091 0 120V48Z" fill="#22201B"/>
</g>
<g id="Ns">
<path d="M29.375 129C26.4583 129 25 127.438 25 124.312V44.0625C25 40.9375 26.4583 39.375 29.375 39.375H38.625C42.2083 39.375 44.9167 40.8333 46.75 43.75L78.625 94.9375H79.0625C78.8542 92.4375 78.75 89.9375 78.75 87.4375V44.0625C78.75 40.9375 80.2083 39.375 83.125 39.375H92.625C95.5417 39.375 97 40.9375 97 44.0625V124.312C97 127.438 95.5417 129 92.625 129H84C80.4167 129 77.7083 127.542 75.875 124.625L43.375 72.5H42.9375C43.1458 75 43.25 77.5 43.25 80V124.312C43.25 127.438 41.7917 129 38.875 129H29.375ZM149.75 75.4688C149.188 76.8438 148.688 78.0938 148.25 79.2188C147.875 80.3438 147.531 81.3438 147.219 82.2188C146.906 83.2188 146.625 84.0938 146.375 84.8438C146.125 85.7188 145.844 86.7188 145.531 87.8438C145.219 88.8438 144.812 90.0938 144.312 91.5938C143.875 93.0312 143.344 94.75 142.719 96.75C142.219 93.75 141.312 91.375 140 89.625C138.688 87.8125 137.344 86.4062 135.969 85.4062C134.344 84.2812 132.594 83.4688 130.719 82.9688C127.344 82.4062 124.906 82.4688 123.406 83.1562C121.906 83.8438 120.906 84.7188 120.406 85.7812C120.156 86.2188 119.875 86.7812 119.562 87.4688C119.312 88.0938 119.094 88.75 118.906 89.4375C118.781 90.125 118.75 90.8125 118.812 91.5C118.875 92.1875 119.156 92.75 119.656 93.1875C119.969 93.5 120.781 93.9375 122.094 94.5C123.406 95 124.969 95.5938 126.781 96.2812C128.656 96.9062 130.625 97.5938 132.688 98.3438C134.812 99.0938 136.812 99.8438 138.688 100.594C140.562 101.344 142.188 102.094 143.562 102.844C144.938 103.594 145.844 104.281 146.281 104.906C146.656 105.531 147.062 106.375 147.5 107.438C148 108.438 148.344 109.562 148.531 110.812C148.781 112 148.844 113.25 148.719 114.562C148.656 115.812 148.312 117.062 147.688 118.312C147.062 119.562 146.062 120.719 144.688 121.781C143.375 122.844 141.594 123.719 139.344 124.406C136.719 125.219 134.188 125.438 131.75 125.062C129.312 124.688 127.062 124.125 125 123.375C123 122.625 121.25 121.906 119.75 121.219C118.25 120.469 117.188 120.156 116.562 120.281C115.875 120.406 115.094 120.75 114.219 121.312C113.344 121.875 112.5 122.469 111.688 123.094C110.938 123.656 110.281 124.188 109.719 124.688C109.156 125.125 108.875 125.281 108.875 125.156C108.875 125.031 108.969 124.656 109.156 124.031C109.406 123.406 109.656 122.656 109.906 121.781C110.219 120.844 110.5 119.844 110.75 118.781C111.062 117.656 111.281 116.594 111.406 115.594C111.531 114.781 111.688 113.781 111.875 112.594C112 111.531 112.156 110.25 112.344 108.75C112.594 107.188 112.875 105.312 113.188 103.125C113.5 104.75 113.938 106.156 114.5 107.344C115.125 108.531 115.719 109.562 116.281 110.438C116.969 111.438 117.625 112.281 118.25 112.969C119.188 113.844 120.281 114.656 121.531 115.406C122.844 116.156 124.156 116.812 125.469 117.375C126.781 117.875 128.031 118.188 129.219 118.312C130.406 118.438 131.406 118.312 132.219 117.938C133.031 117.562 133.719 116.875 134.281 115.875C134.906 114.875 135.344 113.781 135.594 112.594C135.844 111.406 135.938 110.281 135.875 109.219C135.812 108.094 135.531 107.188 135.031 106.5C134.656 106.062 133.781 105.5 132.406 104.812C131.094 104.125 129.5 103.375 127.625 102.562C125.812 101.75 123.875 100.906 121.812 100.031C119.812 99.1562 117.906 98.2812 116.094 97.4062C114.344 96.4688 112.875 95.5938 111.688 94.7812C110.562 93.9062 109.938 93.125 109.812 92.4375C109.688 91.4375 109.594 90.3438 109.531 89.1562C109.469 87.9062 109.531 86.6875 109.719 85.5C109.969 84.25 110.406 83.0625 111.031 81.9375C111.719 80.8125 112.719 79.875 114.031 79.125C114.906 78.625 116.062 78.25 117.5 78C118.938 77.75 120.531 77.625 122.281 77.625C124.031 77.5625 125.844 77.625 127.719 77.8125C129.594 77.9375 131.375 78.125 133.062 78.375C134.812 78.5625 136.375 78.8125 137.75 79.125C139.188 79.4375 140.281 79.7188 141.031 79.9688C141.906 80.2812 142.844 80.3125 143.844 80.0625C144.719 79.875 145.656 79.4688 146.656 78.8438C147.656 78.2188 148.688 77.0938 149.75 75.4688Z" fill="#D9D9D9"/>
</g>
</g>
<defs>
<filter id="filter0_d_404_41" x="-4" y="8" width="180" height="160" filterUnits="userSpaceOnUse" color-interpolation-filters="sRGB">
<feFlood flood-opacity="0" result="BackgroundImageFix"/>
<feColorMatrix in="SourceAlpha" type="matrix" values="0 0 0 0 0 0 0 0 0 0 0 0 0 0 0 0 0 0 127 0" result="hardAlpha"/>
<feOffset dy="4"/>
<feGaussianBlur stdDeviation="2"/>
<feComposite in2="hardAlpha" operator="out"/>
<feColorMatrix type="matrix" values="0 0 0 0 0 0 0 0 0 0 0 0 0 0 0 0 0 0 0.25 0"/>
<feBlend mode="normal" in2="BackgroundImageFix" result="effect1_dropShadow_404_41"/>
<feBlend mode="normal" in="SourceGraphic" in2="effect1_dropShadow_404_41" result="shape"/>
</filter>
</defs>
</svg>
