<svg width="180" height="168" viewBox="0 0 180 168" fill="none" xmlns="http://www.w3.org/2000/svg">
<g style="mix-blend-mode:darken" filter="url(#filter0_d_404_40)">
<path d="M4 48C4 25.9086 21.9086 8 44 8H136C158.091 8 176 25.9086 176 48V120C176 142.091 158.091 160 136 160H44C21.9086 160 4 142.091 4 120V48Z" fill="#D9D9D9"/>
<path d="M4 48C4 25.9086 21.9086 8 44 8H136C158.091 8 176 25.9086 176 48V120C176 142.091 158.091 160 136 160H44C21.9086 160 4 142.091 4 120V48Z" fill="#D9D9D9"/>
</g>
<path d="M33.375 129C30.4583 129 29 127.438 29 124.312V44.0625C29 40.9375 30.4583 39.375 33.375 39.375H42.625C46.2083 39.375 48.9167 40.8333 50.75 43.75L82.625 94.9375H83.0625C82.8542 92.4375 82.75 89.9375 82.75 87.4375V44.0625C82.75 40.9375 84.2083 39.375 87.125 39.375H96.625C99.5417 39.375 101 40.9375 101 44.0625V124.312C101 127.438 99.5417 129 96.625 129H88C84.4167 129 81.7083 127.542 79.875 124.625L47.375 72.5H46.9375C47.1458 75 47.25 77.5 47.25 80V124.312C47.25 127.438 45.7917 129 42.875 129H33.375ZM153.75 75.4688C153.188 76.8438 152.688 78.0938 152.25 79.2188C151.875 80.3438 151.531 81.3438 151.219 82.2188C150.906 83.2188 150.625 84.0938 150.375 84.8438C150.125 85.7188 149.844 86.7188 149.531 87.8438C149.219 88.8438 148.812 90.0938 148.312 91.5938C147.875 93.0312 147.344 94.75 146.719 96.75C146.219 93.75 145.312 91.375 144 89.625C142.688 87.8125 141.344 86.4062 139.969 85.4062C138.344 84.2812 136.594 83.4688 134.719 82.9688C131.344 82.4062 128.906 82.4688 127.406 83.1562C125.906 83.8438 124.906 84.7188 124.406 85.7812C124.156 86.2188 123.875 86.7812 123.562 87.4688C123.312 88.0938 123.094 88.75 122.906 89.4375C122.781 90.125 122.75 90.8125 122.812 91.5C122.875 92.1875 123.156 92.75 123.656 93.1875C123.969 93.5 124.781 93.9375 126.094 94.5C127.406 95 128.969 95.5938 130.781 96.2812C132.656 96.9062 134.625 97.5938 136.688 98.3438C138.812 99.0938 140.812 99.8438 142.688 100.594C144.562 101.344 146.188 102.094 147.562 102.844C148.938 103.594 149.844 104.281 150.281 104.906C150.656 105.531 151.062 106.375 151.5 107.438C152 108.438 152.344 109.562 152.531 110.812C152.781 112 152.844 113.25 152.719 114.562C152.656 115.812 152.312 117.062 151.688 118.312C151.062 119.562 150.062 120.719 148.688 121.781C147.375 122.844 145.594 123.719 143.344 124.406C140.719 125.219 138.188 125.438 135.75 125.062C133.312 124.688 131.062 124.125 129 123.375C127 122.625 125.25 121.906 123.75 121.219C122.25 120.469 121.188 120.156 120.562 120.281C119.875 120.406 119.094 120.75 118.219 121.312C117.344 121.875 116.5 122.469 115.688 123.094C114.938 123.656 114.281 124.188 113.719 124.688C113.156 125.125 112.875 125.281 112.875 125.156C112.875 125.031 112.969 124.656 113.156 124.031C113.406 123.406 113.656 122.656 113.906 121.781C114.219 120.844 114.5 119.844 114.75 118.781C115.062 117.656 115.281 116.594 115.406 115.594C115.531 114.781 115.688 113.781 115.875 112.594C116 111.531 116.156 110.25 116.344 108.75C116.594 107.188 116.875 105.312 117.188 103.125C117.5 104.75 117.938 106.156 118.5 107.344C119.125 108.531 119.719 109.562 120.281 110.438C120.969 111.438 121.625 112.281 122.25 112.969C123.188 113.844 124.281 114.656 125.531 115.406C126.844 116.156 128.156 116.812 129.469 117.375C130.781 117.875 132.031 118.188 133.219 118.312C134.406 118.438 135.406 118.312 136.219 117.938C137.031 117.562 137.719 116.875 138.281 115.875C138.906 114.875 139.344 113.781 139.594 112.594C139.844 111.406 139.938 110.281 139.875 109.219C139.812 108.094 139.531 107.188 139.031 106.5C138.656 106.062 137.781 105.5 136.406 104.812C135.094 104.125 133.5 103.375 131.625 102.562C129.812 101.75 127.875 100.906 125.812 100.031C123.812 99.1562 121.906 98.2812 120.094 97.4062C118.344 96.4688 116.875 95.5938 115.688 94.7812C114.562 93.9062 113.938 93.125 113.812 92.4375C113.688 91.4375 113.594 90.3438 113.531 89.1562C113.469 87.9062 113.531 86.6875 113.719 85.5C113.969 84.25 114.406 83.0625 115.031 81.9375C115.719 80.8125 116.719 79.875 118.031 79.125C118.906 78.625 120.062 78.25 121.5 78C122.938 77.75 124.531 77.625 126.281 77.625C128.031 77.5625 129.844 77.625 131.719 77.8125C133.594 77.9375 135.375 78.125 137.062 78.375C138.812 78.5625 140.375 78.8125 141.75 79.125C143.188 79.4375 144.281 79.7188 145.031 79.9688C145.906 80.2812 146.844 80.3125 147.844 80.0625C148.719 79.875 149.656 79.4688 150.656 78.8438C151.656 78.2188 152.688 77.0938 153.75 75.4688Z" fill="black"/>
<defs>
<filter id="filter0_d_404_40" x="0" y="8" width="180" height="160" filterUnits="userSpaceOnUse" color-interpolation-filters="sRGB">
<feFlood flood-opacity="0" result="BackgroundImageFix"/>
<feColorMatrix in="SourceAlpha" type="matrix" values="0 0 0 0 0 0 0 0 0 0 0 0 0 0 0 0 0 0 127 0" result="hardAlpha"/>
<feOffset dy="4"/>
<feGaussianBlur stdDeviation="2"/>
<feComposite in2="hardAlpha" operator="out"/>
<feColorMatrix type="matrix" values="0 0 0 0 0 0 0 0 0 0 0 0 0 0 0 0 0 0 0.25 0"/>
<feBlend mode="normal" in2="BackgroundImageFix" result="effect1_dropShadow_404_40"/>
<feBlend mode="normal" in="SourceGraphic" in2="effect1_dropShadow_404_40" result="shape"/>
</filter>
</defs>
</svg>
