<svg width="141" height="146" viewBox="0 0 141 146" fill="none" xmlns="http://www.w3.org/2000/svg">
<path d="M48.1662 111.199C49.4439 110.746 50.7531 110.388 52.0831 110.126L52.2441 110.716C52.2621 110.786 52.3045 110.846 52.3637 110.887C52.4228 110.928 52.4946 110.946 52.566 110.938L57.8321 110.325C59.2808 107.021 61.9407 102.016 61.979 101.939C61.9407 100.69 61.979 99.6398 61.979 98.444C58.9666 99.5631 53.3939 101.686 50.4811 103.043C50.4152 103.086 50.3643 103.148 50.3354 103.22C50.3066 103.293 50.3012 103.373 50.3201 103.449C50.3201 103.449 50.3738 103.641 50.4427 103.917C49.017 103.917 44.7474 103.71 43.7203 104.684C43.5606 104.906 43.4821 105.177 43.498 105.45C43.4367 106.508 43.9656 114.725 44.8087 117.14C45.2457 118.404 46.1655 118.266 46.7941 117.055C47.5216 115.231 47.9886 113.314 48.1815 111.36C48.1815 111.26 48.1585 111.268 48.1662 111.199ZM47.2846 104.339C48.2198 104.262 48.5111 104.277 50.5194 104.216C50.8797 105.58 51.6232 108.386 52.0065 109.819C50.6541 110.029 49.3192 110.339 48.0128 110.747C47.6058 108.633 47.3623 106.49 47.2846 104.339Z" fill="#F5F5F4"/>
<path d="M118.717 37.2517C118.909 36.9834 118.664 36.6385 118.457 36.3702C119.043 35.7672 119.693 35.23 120.396 34.7682C121.582 34.1771 122.666 33.4009 123.608 32.4686C123.999 32.0623 124.735 31.2268 124.459 30.7362C124.183 30.2456 123.692 30.215 123.025 30.4986C123.314 30.1952 123.55 29.8454 123.723 29.4638C123.938 28.8659 123.432 28.383 122.335 28.8276C122.734 28.1913 122.826 27.5245 122.151 27.2025C121.607 26.9419 120.81 27.5628 120.35 27.969C119.447 28.7581 118.599 29.6084 117.813 30.5139C117.33 29.5021 116.563 28.337 115.605 28.7049C114.647 29.0729 115.391 30.7209 115.881 31.6177L114.141 32.8212C113.878 32.6792 113.581 32.6129 113.283 32.6296C111.305 32.9668 102.222 39.8809 101.302 39.8809C100.597 39.8809 90.5244 35.0518 81.8166 33.6567C81.7998 33.6045 81.7686 33.5581 81.7266 33.5228C81.6845 33.4875 81.6334 33.4649 81.579 33.4574C80.0602 33.1982 78.5203 33.0827 76.9798 33.1125C76.9331 33.1156 76.8877 33.1289 76.8466 33.1514C76.8056 33.1739 76.77 33.2051 76.7422 33.2428H76.0983C75.945 32.6219 75.3778 31.1885 75.1785 30.6366C75.6997 30.1843 76.4203 29.9544 76.7959 29.2262C77.4857 27.8771 77.4551 25.5315 77.2635 24.0291C78.1296 23.3699 78.1526 22.312 77.9533 21.2312C77.8767 20.7943 77.6391 19.8055 77.2711 19.5602C77.0642 19.4222 76.6272 19.5602 76.2516 19.6982C75.876 18.8243 75.876 19.2229 76.0293 18.8703C76.1005 18.7078 76.1421 18.5339 76.152 18.3568C76.5582 18.4794 77.4014 17.6669 77.1101 16.5937C76.9575 16.2096 76.7702 15.8401 76.5506 15.4899C76.6579 15.2293 76.8879 14.915 76.1673 13.9569C75.857 13.6221 75.4541 13.3873 75.0099 13.2823H74.6572C74.403 12.9131 74.0295 12.6424 73.5994 12.5158C72.9502 12.3503 72.2619 12.4466 71.6831 12.7841C71.5298 12.8991 71.4072 13.0524 71.2539 13.1597C70.9073 12.9492 70.5095 12.8379 70.1041 12.8379C69.6986 12.8379 69.3009 12.9492 68.9543 13.1597C68.7514 13.2393 68.5666 13.3591 68.4112 13.5119C68.2558 13.6647 68.1328 13.8473 68.0498 14.0489C67.6742 13.9193 67.2757 13.8694 66.8798 13.9024C66.4838 13.9354 66.0991 14.0505 65.7502 14.2405C64.426 14.9585 63.4355 16.1664 62.9907 17.6056C62.9783 17.8226 62.9783 18.0401 62.9907 18.2571H62.9063C61.7565 18.0885 60.2925 20.8173 61.4653 22.9406C61.6032 23.1936 61.7795 23.4312 61.9482 23.7071C62.4388 24.4737 62.2471 24.7036 63.3433 25.6388C63.6652 25.9147 63.7189 25.8917 63.9182 26.0604C64.1175 26.229 64.0408 26.1447 64.1558 26.574C64.2185 26.8268 64.3307 27.0648 64.4859 27.274C64.6412 27.4832 64.8364 27.6595 65.0603 27.7927C65.1417 28.5425 65.4615 29.2464 65.9725 29.8011C66.1343 29.9821 66.323 30.1373 66.532 30.261C66.5884 30.2927 66.6514 30.3111 66.716 30.3146C66.946 31.7404 67.2296 33.5954 67.3522 34.3849L66.67 34.7528C65.7774 35.112 64.9094 35.5294 64.0715 36.0023C64.0057 36.0478 63.9593 36.1161 63.9412 36.1939C63.1286 36.6232 62.3621 37.0294 61.9252 37.2901C55.8389 40.9004 38.5537 64.7012 38.3774 65.7897C38.3579 65.8521 38.3579 65.9189 38.3774 65.9813C38.6251 66.3766 38.927 66.7352 39.2742 67.0468C39.1672 67.242 39.0386 67.4245 38.8909 67.591C37.3579 68.5952 35.0583 70.0899 33.8242 71.4237C33.7376 71.5008 33.6727 71.5992 33.6358 71.7092C33.5988 71.8191 33.5912 71.9368 33.6137 72.0505C33.6361 72.1643 33.6878 72.2702 33.7637 72.3579C33.8396 72.4456 33.9371 72.512 34.0465 72.5505C34.2764 72.6271 34.3147 72.6041 35.8095 71.7839C35.3987 72.1443 35.0627 72.5818 34.8207 73.0717C34.721 73.4933 35.1043 73.7386 35.5872 73.6619C35.8589 73.5907 36.1176 73.4769 36.3537 73.3247C36.2155 73.5381 36.1419 73.787 36.1419 74.0414C36.1419 74.2957 36.2155 74.5446 36.3537 74.7581C37.1202 75.7239 39.1286 72.6808 40.1864 71.9296C40.6156 72.4738 41.1982 73.7463 42.1257 73.409C42.9305 73.11 42.049 71.3393 42.1257 70.8258C42.4376 70.5263 42.7706 70.2496 43.1222 69.9979C43.7135 70.4364 44.3896 70.7471 45.1075 70.9101C46.3723 70.9101 59.5719 57.5878 60.5761 56.5223C60.2158 59.9104 58.3991 74.4515 58.7824 77.28C58.9587 78.5601 62.0325 78.744 63.3279 78.813C62.937 88.0114 62.6764 101.947 62.6074 102.093C60.5761 106.469 60.0242 107.665 59.342 108.991C58.1002 111.368 52.8724 120.137 52.2822 122.13C52.1979 122.444 52.1902 122.567 52.5198 123.149C51.5321 124.188 50.6153 125.291 49.7757 126.453C49.3541 127.219 51.1631 134.364 52.4432 136.893C52.7345 137.46 53.2097 138.334 53.8459 138.311C55.7623 138.242 55.7546 131.359 55.7009 129.435C55.7006 129.375 55.6789 129.318 55.6396 129.274C55.987 128.755 56.3659 128.259 56.7741 127.787C57.0178 127.954 57.274 128.103 57.5406 128.231C57.8012 128.346 58.0925 128.147 58.3072 127.971C60.8597 125.962 74.6266 108.807 77.5777 100.713C78.9192 97.0181 80.7052 91.913 81.2111 88.295C81.5204 86.0075 81.5487 83.6907 81.2954 81.3962C81.2954 81.3637 81.3083 81.3325 81.3313 81.3095C81.3543 81.2865 81.3855 81.2736 81.418 81.2736C81.4506 81.2736 81.4818 81.2865 81.5048 81.3095C81.5278 81.3325 81.5407 81.3637 81.5407 81.3962C81.9246 83.7037 81.9993 86.0521 81.763 88.3793C81.1958 93.4001 77.2328 103.863 75.1172 107.711C76.9415 107.374 80.6515 106.638 82.4452 106.102C88.4241 104.285 93.9432 98.8655 94.4261 92.7792C94.5823 89.912 94.5823 87.0383 94.4261 84.1711C94.3743 80.2128 93.8598 76.2742 92.893 72.4355C94.5181 71.554 96.0051 70.5192 96.488 69.5687C97.5229 67.5374 94.7863 55.8478 94.1884 52.567C97.4615 52.9273 103.034 53.5788 105.633 51.5475C108.607 49.156 115.03 42.4258 118.717 37.2517ZM55.287 129.013C53.9073 128.178 51.9756 126.192 51.6843 124.636C51.9986 124.238 52.3282 123.87 52.6348 123.456C53.6736 125.041 54.9689 126.442 56.4675 127.603C56.0465 128.049 55.6523 128.52 55.287 129.013ZM116.226 31.8324C116.266 31.8071 116.294 31.7675 116.306 31.7219C116.317 31.6763 116.311 31.628 116.288 31.5871C116.019 31.0888 115.214 29.3335 115.774 29.1342C116.096 29.0115 116.38 29.2108 116.617 29.4791C116.98 29.9394 117.262 30.4578 117.453 31.0122C117.467 31.0573 117.493 31.0976 117.528 31.129C117.564 31.1603 117.607 31.1814 117.653 31.1901C117.7 31.1987 117.748 31.1946 117.792 31.1781C117.836 31.1616 117.875 31.1334 117.905 31.0965C118.671 30.2456 120.465 28.3063 121.477 27.7851C122.243 27.3865 122.427 28.1224 120.549 29.8394C120.118 30.1683 119.704 30.5188 119.308 30.8895C119.286 30.9196 119.274 30.9558 119.274 30.993C119.274 31.0302 119.286 31.0664 119.308 31.0965C119.308 31.2958 119.469 31.5181 119.745 31.3111C120.411 30.7262 121.115 30.1859 121.853 29.6937C122.229 29.4263 122.666 29.2577 123.125 29.2032C122.895 29.9084 120.756 31.8247 120.572 32.0393C120.514 32.0916 120.479 32.1647 120.474 32.2429C120.469 32.3211 120.495 32.3981 120.546 32.4574C120.597 32.5167 120.67 32.5535 120.748 32.5599C120.826 32.5662 120.903 32.5417 120.963 32.4916C121.814 31.9397 123.301 30.6519 123.815 30.8435C124.328 31.0352 122.803 32.4609 122.42 32.7982C120.22 34.7069 120.787 33.4804 118.242 36.0713C117.134 34.8578 115.862 33.8051 114.463 32.9438L116.226 31.8324ZM82.9204 68.4955C82.7901 67.4377 82.6292 66.2956 82.4299 65.1075L82.7595 64.6705C84.2925 62.7006 84.7525 59.5654 84.6068 57.1049C85.427 60.6999 86.0786 64.2336 86.5768 67.7443L82.9204 68.4955ZM71.5221 42.2495C69.5062 40.7165 66.2637 38.0719 64.3781 36.2629L67.4442 34.7298C70.2597 37.3597 72.6698 40.3923 74.5959 43.7289C77.541 49.1393 79.7258 54.9301 81.0884 60.9375L70.1577 45.4766L71.5835 42.5178C71.6023 42.4722 71.6066 42.4219 71.5956 42.3739C71.5846 42.3258 71.5589 42.2823 71.5221 42.2495ZM76.7039 33.5571C76.7499 33.6414 77.2788 34.7682 78.0836 36.7382C78.0836 36.8225 77.938 38.7388 77.869 39.4133C76.8907 39.0255 75.968 38.5101 75.1248 37.8803C75.2935 37.2134 76.0523 34.1856 76.106 33.5034L76.7039 33.5571ZM73.9827 41.7896C74.0364 41.6516 74.09 41.4676 74.1513 41.253L74.6649 41.5213C74.9562 41.7129 74.8412 41.1304 75.1018 42.8167C75.1018 43.1004 75.1785 43.4146 75.1938 43.7596C74.8412 43.1234 74.4043 42.4411 73.9904 41.7896H73.9827ZM73.5534 41.1457C72.1053 39.0917 70.4568 37.1865 68.6323 35.4581L74.4043 37.9646C74.182 38.4935 73.8601 40.1109 73.5611 41.1457H73.5534ZM79.4481 45.6376C78.6815 43.5449 78.0913 41.207 77.8 40.5938C77.8173 40.4026 77.8173 40.2101 77.8 40.0189C77.9109 40.0602 78.027 40.086 78.145 40.0956C78.2189 40.0964 78.2907 40.0705 78.347 40.0226C78.4033 39.9747 78.4405 39.9081 78.4516 39.8349C78.5129 39.582 78.6125 38.3019 78.6279 38.0183C80.8577 43.6481 82.7192 49.4169 84.2006 55.2882C79.8697 46.0745 80.5365 48.742 79.4557 45.6376H79.4481ZM85.7873 60.2706C84.0396 51.8925 80.9658 41.4447 77.4704 33.7027C78.7541 33.7034 80.0356 33.8059 81.3031 34.0093C81.9546 39.8349 81.4104 39.6356 81.8473 39.8656C82.2842 40.0956 84.9134 41.1534 85.3044 41.3143C85.266 41.9046 85.8179 58.7836 85.7949 60.2706H85.7873ZM76.9645 20.0508C77.3641 20.9228 77.5051 21.8912 77.3708 22.841C77.3084 23.0827 77.1801 23.3024 77.0003 23.4755C76.8204 23.6487 76.5961 23.7686 76.3522 23.8218C76.1082 23.875 75.8543 23.8595 75.6187 23.777C75.3831 23.6945 75.175 23.5483 75.0175 23.3545C74.6518 22.5841 74.3765 21.7738 74.1973 20.94C74.4043 20.6717 76.6119 20.1351 76.9645 20.0508ZM66.417 27.7161C66.137 27.5886 65.8504 27.476 65.5585 27.3788C65.3626 27.2983 65.1877 27.174 65.0473 27.0154C64.9068 26.8568 64.8046 26.6681 64.7483 26.4639C64.6921 26.2597 64.6834 26.0453 64.7228 25.8371C64.7623 25.629 64.8489 25.4327 64.976 25.2632C65.4589 24.8569 65.8958 24.8799 66.2944 25.4855C66.5474 25.9531 66.5397 25.9914 66.6547 26.0374C66.6877 26.0519 66.7234 26.0592 66.7594 26.0589C66.7954 26.0585 66.831 26.0504 66.8636 26.0351C66.8963 26.0199 66.9253 25.9978 66.9488 25.9705C66.9722 25.9431 66.9896 25.911 66.9996 25.8764C67.1132 25.3966 67.1315 24.8992 67.0533 24.4123C66.9613 23.8834 66.946 21.5379 66.9613 21.4612C67.1852 21.5792 67.4367 21.6348 67.6895 21.6222C69.0769 21.5685 69.3529 20.8556 69.9048 20.2731C70.541 20.3344 70.6713 20.641 71.3918 20.2731C71.7292 20.0812 72.0387 19.8439 72.3117 19.5679C72.532 19.6581 72.7447 19.7657 72.9479 19.8898C73.4073 20.1107 73.9254 20.1786 74.4262 20.0834C74.927 19.9882 75.3841 19.735 75.7304 19.3609C75.8147 19.5219 75.8914 19.6829 75.9604 19.8515C75.256 20.0701 74.5928 20.4042 73.998 20.8403C73.8677 21.0013 74.0594 21.8751 74.1053 22.0821C73.4632 22.1629 72.8419 22.3631 72.2733 22.6723C72.1584 22.2737 71.9054 21.5302 71.5068 21.3232C71.3869 21.2865 71.2588 21.2865 71.1389 21.3232C70.449 21.4305 67.9731 22.1741 67.6742 22.5803C67.4135 22.864 68.1571 25.0562 68.387 25.4165C69.2685 26.7809 71.8517 26.3823 72.3347 24.7879C72.4542 24.2529 72.4542 23.698 72.3347 23.1629C72.557 23.1629 73.2238 22.9253 73.3005 22.9023C73.8294 24.0904 73.9827 24.1594 74.5959 25.4395C74.5116 25.5085 74.3736 25.6235 74.2587 25.7001C73.7144 26.0604 73.5994 25.9991 73.6301 26.1524C73.639 26.1828 73.6587 26.2089 73.6856 26.2259C73.7124 26.2428 73.7444 26.2494 73.7757 26.2444C74.0974 26.1984 74.4118 26.1108 74.7109 25.9837C74.8899 25.917 75.0375 25.7857 75.1248 25.6158C75.3395 25.1329 74.1513 23.3162 73.6838 22.772C73.7757 22.772 73.9904 22.6187 74.1513 22.5343C74.366 23.3929 74.5116 24.0674 75.3395 24.4047C75.5787 24.495 75.8337 24.5361 76.0892 24.5256C76.3448 24.5151 76.5955 24.4531 76.8265 24.3434C76.9492 25.6925 76.9262 27.8847 76.2823 29.0805C75.9527 29.7014 75.1402 29.939 74.6189 30.4526C74.4656 30.5982 74.5653 30.8052 74.6189 31.0275C75.4698 33.3961 75.4851 33.3884 75.4391 33.695C75.2135 34.9676 74.8984 36.2227 74.4963 37.451C74.3046 37.3667 72.1507 36.2246 67.9348 34.5842C67.8045 33.718 67.1069 29.0958 66.8846 28.245C66.9 27.9461 66.8616 27.8771 66.417 27.6778V27.7161ZM71.7828 24.5886C71.5375 25.4242 70.38 25.7844 69.5522 25.5545C68.7243 25.3245 68.6706 24.9029 68.2797 23.9064C68.0965 23.5258 67.9699 23.1203 67.9041 22.703C68.1571 22.427 70.9242 21.8598 71.2692 21.8061C71.753 22.6338 71.9345 23.6037 71.7828 24.5503V24.5886ZM41.7884 70.6111C41.4971 70.8948 41.8881 71.8223 41.9494 72.6271C41.9494 72.6961 41.9494 72.9951 41.9034 73.0181C41.4818 73.156 41.0909 72.5198 40.8532 72.1365C40.6156 71.7533 40.378 71.232 40.0024 71.37C39.2359 71.7303 37.4575 74.0912 36.76 74.3365C36.4074 73.6619 38.4233 71.7379 38.4923 71.6306C38.5219 71.5814 38.5374 71.5249 38.5371 71.4674C38.5369 71.41 38.5209 71.3537 38.4908 71.3047C38.4608 71.2557 38.4179 71.2158 38.3668 71.1895C38.3157 71.1632 38.2584 71.1514 38.2011 71.1554C38.0631 71.1554 37.9711 71.278 37.7565 71.4697C37.1036 72.1068 36.3564 72.6394 35.5412 73.0487C36.2803 72.2008 37.0714 71.3995 37.9098 70.6495C37.9512 70.6069 37.9803 70.5539 37.9941 70.4962C37.9941 70.4962 37.8331 70.0899 37.5188 70.2509C37.0743 70.4962 34.9126 71.7456 34.2304 72.0676C34.1384 72.0062 34.1921 71.9142 34.2304 71.8223C35.3112 70.4962 37.6875 68.8865 39.1439 67.867C39.3148 67.6909 39.4571 67.4892 39.5655 67.2691C40.5741 68.2076 41.6502 69.0709 42.7849 69.8523C42.4353 70.0815 42.1023 70.3351 41.7884 70.6111ZM59.6256 77.5789C59.4569 77.4716 59.3343 77.3719 59.3113 77.234C58.8897 74.1065 61.2353 56.3843 61.197 55.6868C61.197 55.6459 61.1888 55.6054 61.1729 55.5677C61.157 55.53 61.1338 55.4958 61.1045 55.4672C61.0752 55.4387 61.0405 55.4162 61.0024 55.4013C60.9643 55.3863 60.9236 55.3792 60.8827 55.3802C60.4918 55.3802 61.1816 55.3802 51.416 64.7319C50.7722 65.3374 45.851 70.0439 45.0308 70.3582C43.904 70.2739 39.6651 66.8935 38.9752 65.828C40.309 63.1298 56.4828 40.9311 62.0785 37.5353C62.5077 37.2747 63.2436 36.8685 64.0485 36.4392C64.3268 36.7017 64.6268 36.9402 64.9453 37.1521C66.7237 38.8384 69.1996 40.9387 71.0776 42.5178L69.6135 45.423C69.5913 45.4614 69.5796 45.505 69.5796 45.5494C69.5796 45.5938 69.5913 45.6375 69.6135 45.6759C81.5024 62.7312 81.3261 62.5396 81.4027 62.5396C82.1649 66.4807 82.6388 70.4721 82.8208 74.4821C82.8208 75.5629 82.8208 75.4709 82.8668 75.3943C82.9128 75.3176 82.8668 75.448 82.8668 75.448C81.0118 77.4716 62.6534 79.3573 59.6256 77.5789ZM101.999 52.1838C98.527 52.6667 94.6024 51.9461 93.8435 51.9155C93.4218 49.872 92.5814 47.9381 91.3753 46.2355C91.3569 46.2107 91.3298 46.1937 91.2994 46.188C91.269 46.1823 91.2376 46.1883 91.2115 46.2048C91.1853 46.2212 91.1663 46.247 91.1583 46.2768C91.1503 46.3067 91.1539 46.3384 91.1683 46.3658C91.6129 47.2703 93.1 51.1719 93.4679 52.1224C93.3529 52.4904 96.9326 67.2921 95.9208 69.285C95.0163 71.0864 89.7502 73.3553 87.8492 74.0069C87.4734 69.7395 86.8592 65.4966 86.0096 61.2978C86.2702 59.0902 85.9329 45.9672 85.8333 41.115C85.8303 41.0587 85.8115 41.0043 85.7789 40.9581C85.7464 40.912 85.7014 40.8761 85.6493 40.8544L82.2076 39.4057C82.1919 37.5841 82.0768 35.7647 81.8626 33.9557C90.4554 35.4427 100.466 40.3562 101.302 40.3638C102.513 40.3638 111.512 33.4651 113.375 33.1891C114.203 33.0588 117.759 36.1633 118.173 37.0218C114.54 42.0962 108.155 48.765 105.196 51.0723C104.243 51.7096 103.142 52.0922 101.999 52.1838Z" fill="#F5F5F4"/>
<path d="M70.9933 23.0556C70.9837 23.0053 70.9643 22.9573 70.9362 22.9145C70.9081 22.8716 70.8719 22.8347 70.8295 22.8059C70.7872 22.7771 70.7395 22.7569 70.6894 22.7465C70.6392 22.736 70.5875 22.7356 70.5372 22.7452C70.4868 22.7547 70.4389 22.7741 70.396 22.8022C70.3532 22.8303 70.3163 22.8666 70.2875 22.9089C70.2587 22.9513 70.2385 22.9989 70.228 23.049C70.2176 23.0992 70.2172 23.1509 70.2267 23.2012C70.38 23.9678 70.4107 24.1441 70.748 24.1441C70.8117 24.1443 70.8745 24.1286 70.9307 24.0984C70.9868 24.0683 71.0346 24.0246 71.0696 23.9713C71.1046 23.918 71.1258 23.8568 71.1312 23.7933C71.1366 23.7298 71.1261 23.6659 71.1006 23.6075C71.0776 23.4849 71.0086 23.1246 70.9933 23.0556ZM73.3388 28.13C73.8371 28.2757 74.3123 28.038 74.297 27.9154C74.2817 27.7928 74.297 27.8541 73.6225 27.6011C73.1702 27.4325 72.672 26.8346 72.4957 26.9266C72.3194 27.0186 72.5876 27.5091 72.649 27.6011C72.813 27.8499 73.056 28.0363 73.3388 28.13ZM87.3587 20.848C86.3545 25.0562 85.6187 28.6283 85.496 29.3412C85.4146 29.6513 85.3989 29.9751 85.45 30.2916C85.8563 31.1578 91.107 32.8672 91.7739 32.5299C92.4408 32.1926 94.1731 28.291 96.1891 24.2667C97.4241 24.3062 98.6599 24.2163 99.8761 23.9984C101.157 23.7635 102.403 23.3695 103.586 22.8256C106.177 21.6299 109.013 16.5094 109.396 13.9339C109.684 11.1376 109.092 8.32134 107.702 5.87765C101.271 -5.27537 82.4069 0.726563 83.94 13.1137C84.3777 15.9481 85.5572 18.6164 87.3587 20.848ZM92.0345 29.9774C92.0345 30.1 91.8965 30.0847 91.268 29.9774C89.9823 29.8158 88.7376 29.4182 87.5963 28.8046C87.0597 28.5133 86.9141 28.452 86.9678 28.3217C87.0214 28.1914 87.1364 28.2373 87.9642 28.4673C88.0409 28.4673 90.4171 29.2338 91.0993 29.4715C91.9809 29.8701 92.0345 29.8701 92.0345 29.9774ZM91.8965 17.5059C92.7151 17.5484 93.5308 17.3794 94.2651 17.0153C94.9477 17.346 95.686 17.5462 96.4421 17.6056C95.1543 20.0048 92.5404 24.8953 91.6972 27.5015L88.4472 26.6046C89.2137 24.719 90.9077 20.3038 91.8812 17.5059H91.8965ZM91.6283 16.8697C91.0561 16.7832 90.528 16.5115 90.1251 16.0961C89.7222 15.6807 89.4666 15.1447 89.3977 14.5701C89.183 13.037 90.1642 11.32 91.6436 11.7263C92.5711 11.9792 92.6861 12.7151 92.5251 13.6426C92.3871 14.3172 91.8889 16.0112 91.6129 16.839L91.6283 16.8697ZM93.7132 15.03C93.7951 14.5284 93.9833 14.0502 94.2651 13.6273C94.3992 13.3967 94.5953 13.2085 94.8311 13.0838C95.0668 12.9591 95.3329 12.9031 95.5989 12.9221C96.1661 13.0907 96.4114 14.1638 95.9438 14.8384C95.4945 15.4347 94.935 15.9395 94.2958 16.3255C94.0758 16.1964 93.9006 16.003 93.7938 15.7715C93.6869 15.5399 93.6534 15.2812 93.6979 15.03H93.7132ZM86.6688 5.28742C90.1029 1.15582 96.5647 -0.484555 101.233 1.21714C103.769 2.08765 105.902 3.85022 107.235 6.1766C108.556 8.50191 109.122 11.1809 108.852 13.8419C108.5 16.2258 105.786 21.1776 103.402 22.2737C101.223 23.2679 98.8444 23.7504 96.4497 23.6842C96.1891 23.6842 95.9132 23.6842 95.8135 23.8681C95.3613 24.788 94.5334 26.5663 93.7209 28.2373C93.1598 27.9664 92.5779 27.7409 91.9809 27.5628C92.87 25.0179 95.6755 20.0201 97.0093 17.5979C98.1649 17.6969 99.3266 17.4963 100.382 17.0153C100.667 16.8652 100.904 16.6369 101.064 16.3571C101.224 16.0774 101.3 15.7578 101.285 15.4359C101.27 15.114 101.163 14.8032 100.977 14.5398C100.792 14.2765 100.535 14.0716 100.236 13.9492C99.0483 13.3667 97.9828 14.7617 97.3619 15.9345C97.1933 16.2411 97.0016 16.6014 96.787 17.0077C96.167 16.9669 95.5556 16.8405 94.9703 16.6321C95.5533 16.2224 96.0703 15.7261 96.5034 15.1603C96.7461 14.7938 96.8691 14.361 96.8553 13.9217C96.8416 13.4823 96.6918 13.0581 96.4267 12.7074C96.2185 12.4656 95.9292 12.308 95.6131 12.2643C95.297 12.2205 94.9758 12.2936 94.7097 12.4698C94.1729 12.7997 93.7427 13.2775 93.4707 13.8458C93.1988 14.4142 93.0967 15.0489 93.1767 15.6739C93.26 16.0267 93.45 16.3452 93.7209 16.5861C93.2181 16.7943 92.6784 16.8986 92.1342 16.8927C92.4408 15.9882 92.939 14.3555 93.0693 13.6886C93.1511 13.3084 93.1692 12.9173 93.123 12.5311C93.0637 12.1997 92.9099 11.8924 92.6801 11.6462C92.4502 11.4001 92.1542 11.2256 91.8276 11.1437C89.9649 10.6148 88.5928 12.6768 88.8611 14.6008C88.9369 15.2903 89.2328 15.937 89.705 16.4451C90.1772 16.9532 90.8005 17.2956 91.4826 17.4216C90.5015 20.1811 88.9684 24.6347 88.2019 26.5357L86.5155 26.0987C87.5963 20.6717 87.7266 20.802 87.5733 20.733C85.8316 18.5124 84.7172 15.8654 84.3462 13.0677C84.1655 11.6805 84.279 10.2708 84.6791 8.93028C85.0793 7.58979 85.7572 6.34858 86.6688 5.28742ZM97.3083 17.0537C97.8448 16.0802 98.918 13.9492 99.9604 14.4705C100.169 14.5545 100.351 14.6938 100.486 14.8735C100.621 15.0532 100.704 15.2663 100.727 15.4899C100.712 16.839 98.6114 17.0767 97.2776 17.0537H97.3083ZM126.651 20.4341C127.575 19.8908 128.666 19.7053 129.717 19.9128C130.872 19.9335 131.975 20.3953 132.801 21.2034C133.626 22.0116 134.111 23.1049 134.155 24.2591C133.461 23.8561 132.649 23.7045 131.856 23.8298C129.932 23.9984 127.418 25.0409 127.755 26.8959C128.031 28.429 130.054 28.222 131.587 27.8081C133.121 27.3942 134.339 26.643 134.654 25.1636C136.516 26.5203 136.953 28.8966 137.03 31.2192C137.03 31.2517 137.043 31.2829 137.066 31.3059C137.089 31.3289 137.12 31.3418 137.153 31.3418C137.185 31.3418 137.216 31.3289 137.239 31.3059C137.262 31.2829 137.275 31.2517 137.275 31.2192C137.329 28.6206 136.861 26.0757 134.738 24.5963C134.76 23.9308 134.646 23.2678 134.404 22.6474C134.163 22.027 133.797 21.4621 133.331 20.987C132.864 20.5119 132.306 20.1364 131.69 19.8832C131.074 19.6301 130.414 19.5045 129.748 19.5142C128.684 19.3588 127.599 19.5812 126.682 20.1428C126.398 20.2808 126.528 20.4877 126.651 20.4341ZM133.642 25.9301C132.776 27.0646 130.323 27.6548 129.188 27.4632C128.767 27.3942 128.422 27.2179 128.33 26.7809C128.054 25.2479 130.698 24.4124 132.277 24.3587C132.92 24.3094 133.562 24.4738 134.102 24.8263C134.044 25.2271 133.886 25.6067 133.642 25.9301ZM123.14 11.4733C123.961 10.4615 123.409 8.69848 121.117 8.69082C120.228 8.69082 119.798 9.59532 119.86 10.4615C119.998 12.5235 122.32 12.4621 123.14 11.4733ZM120.396 10.4232C120.396 9.91726 120.634 9.25805 121.163 9.26571C122.397 9.26571 122.964 9.84061 122.964 10.4768C122.933 11.9256 120.296 12.6768 120.396 10.4232ZM120.082 97.3247C113.344 94.6342 110.217 107.658 104.713 118.849C104.678 119.319 104.694 119.792 104.759 120.259C104.759 121.432 104.889 129.197 105.571 130.079C105.755 130.431 106.53 130.079 106.89 129.856C109.95 127.962 112.833 125.797 115.506 123.387C115.528 123.361 115.546 123.33 115.556 123.297C115.567 123.264 115.57 123.23 115.567 123.195C116.993 121.164 122.335 110.586 123.631 105.281C124.535 101.525 123.639 98.7275 120.082 97.3247ZM122.489 107.06C118.882 106.597 115.394 105.458 112.21 103.702C114.003 100.307 116.219 96.4356 119.875 97.892C123.945 99.5094 123.861 102.859 122.489 107.037V107.06ZM109.734 126.989C109.498 126.792 109.241 126.622 108.967 126.484C107.931 125.957 106.735 125.842 105.617 126.162C105.541 125.249 105.104 119.316 105.104 119.263C110.845 121.363 109.074 120.451 114.762 123.279C114.164 123.847 111.918 125.418 109.734 126.974V126.989ZM113.689 104.806C114.437 105.215 115.204 105.585 115.989 105.918C114.232 108.677 112.679 111.562 111.343 114.549C110.056 117.239 110.102 117.224 108.791 120.16C108.024 119.914 107.258 119.684 106.491 119.454C107.319 117.806 113.206 105.757 113.689 104.791V104.806ZM109.09 120.236C111.581 115.767 114.118 110.21 116.295 106.017C117.062 106.339 117.828 106.6 118.595 106.83C118.189 107.596 117 109.635 116.686 110.225C116.372 110.816 113.221 117.025 112.999 117.5C112.647 118.266 111.681 120.405 111.382 121.087C110.6 120.742 109.849 120.482 109.059 120.221L109.09 120.236ZM111.658 121.187C112.125 120.336 114.049 116.764 114.287 116.304C114.647 115.591 118.664 107.382 118.886 106.906C119.591 107.106 120.335 107.274 120.81 107.366C119.407 111.199 115.368 118.581 113.911 122.222C112.585 121.601 112.286 121.447 111.627 121.172L111.658 121.187ZM112.125 103.925L113.497 104.691C110.732 109.4 108.324 114.309 106.292 119.378L105.142 119.025C109.596 109.536 109.803 108.294 112.095 103.909L112.125 103.925ZM115.283 122.889L114.126 122.337C115.375 119.884 119.285 113.591 121.071 107.42C121.5 107.497 121.922 107.566 122.328 107.619C120.358 112.875 117.993 117.974 115.253 122.873L115.283 122.889ZM91.268 127.863C91.5735 127.61 91.7919 127.268 91.8923 126.884C91.9927 126.5 91.9701 126.095 91.8276 125.725C91.7625 125.191 91.5176 124.695 91.1331 124.318C90.7486 123.942 90.2474 123.708 89.712 123.654C89.1767 123.601 88.639 123.731 88.1876 124.024C87.7362 124.316 87.3979 124.754 87.2284 125.265C86.2472 124.629 85.1817 123.954 84.1623 123.31C84.9288 122.291 87.1824 122.743 87.4123 123.578C87.4174 123.611 87.4352 123.64 87.4618 123.66C87.4884 123.679 87.5216 123.687 87.5541 123.682C87.5867 123.677 87.6159 123.659 87.6353 123.632C87.6547 123.606 87.6627 123.573 87.6576 123.54C87.5426 122.206 84.7678 121.424 83.6487 122.996C82.6599 122.39 81.4334 121.654 80.4062 121.095C81.2878 120.328 83.2577 120.758 83.4724 121.555C83.4825 121.582 83.5019 121.605 83.5272 121.619C83.5526 121.633 83.5822 121.638 83.6107 121.633C83.6393 121.627 83.6649 121.612 83.6831 121.589C83.7013 121.566 83.7108 121.538 83.71 121.509C83.6104 120.267 81.0425 119.431 79.8773 120.796C79.3892 120.522 78.8758 120.296 78.3443 120.121C78.2472 120.081 78.1405 120.07 78.0371 120.089C77.9337 120.108 77.8381 120.156 77.7617 120.229C75.8224 122.643 69.2839 128.913 66.2638 129.642C66.1878 129.653 66.1163 129.684 66.0563 129.732C65.9962 129.78 65.9499 129.843 65.9219 129.915C65.894 129.986 65.8853 130.064 65.8969 130.14C65.9084 130.215 65.9398 130.287 65.9878 130.347C66.651 131.02 67.4105 131.591 68.2414 132.041C67.4749 132.807 66.877 133.497 66.4324 133.996C66.2024 134.241 66.0798 138.932 66.2791 139.967C66.3088 140.068 66.3741 140.155 66.4631 140.212C67.4289 140.871 79.8697 146.252 81.1421 145.532C81.993 145.049 92.1495 134.478 92.3105 134.157C92.5558 133.651 92.4714 130.278 92.4561 128.929C92.3948 128.523 91.6359 128.086 91.268 127.863ZM66.739 137.989V136.28C69.9201 137.813 77.2022 140.94 79.9617 141.814C80.6669 142.044 80.7282 142.013 81.0961 141.814C83.2041 140.465 90.6471 132.079 92.0115 130.799V132.417C87.8723 136.563 80.8432 143.83 80.7129 143.416C79.954 143.37 67.3982 138.296 66.739 137.989ZM91.0764 125.28C91.3519 125.744 91.5 126.273 91.5056 126.813C91.503 126.985 91.4608 127.154 91.3823 127.307C91.3039 127.46 91.1914 127.592 91.0534 127.695C90.4095 127.265 89.1907 126.468 87.7496 125.533C88.5391 123.977 90.2945 123.954 91.0457 125.28H91.0764ZM66.5474 130.186C69.8128 129.22 76.014 123.241 78.099 120.65C78.6008 120.79 79.0845 120.988 79.5401 121.24C78.7735 122.666 79.5937 124.23 79.885 124.008C80.046 123.885 79.7547 123.839 79.7087 123.088C79.6891 122.539 79.8133 121.995 80.069 121.509C81.1268 122.061 82.3686 122.781 83.4187 123.387C82.7748 124.82 83.549 126.238 83.8173 126.031C84.0856 125.824 83.6947 125.87 83.6487 125.119C83.63 124.627 83.7244 124.136 83.9246 123.686C85.0054 124.322 86.1092 124.981 87.1211 125.602C86.9651 125.984 86.9032 126.398 86.9406 126.809C86.9779 127.22 87.1134 127.615 87.3357 127.963C87.3458 127.976 87.3583 127.987 87.3726 127.995C87.3869 128.003 87.4027 128.009 87.4191 128.011C87.4354 128.013 87.4521 128.012 87.468 128.008C87.484 128.003 87.4989 127.996 87.512 127.986C87.5251 127.976 87.536 127.963 87.5443 127.949C87.5525 127.935 87.5579 127.919 87.56 127.903C87.5621 127.886 87.561 127.87 87.5567 127.854C87.5524 127.838 87.5451 127.823 87.535 127.81C87.3972 127.505 87.3292 127.174 87.3358 126.84C87.3425 126.505 87.4236 126.177 87.5733 125.878C89.3593 126.966 90.8004 127.879 91.245 128.178C91.1607 128.254 83.1658 135.368 80.4446 137.483C78.6586 137.016 69.2839 132.363 66.5474 130.186ZM66.8387 134.455C70.311 135.989 78.1986 139.545 80.0153 139.89C80.3296 139.952 80.4522 139.975 81.0501 139.499C83.6027 137.453 91.9042 128.768 91.9809 128.86C91.9846 128.883 91.9846 128.906 91.9809 128.929V130.462C90.2715 131.834 80.7665 141.814 80.6132 141.339C79.8467 141.339 67.3906 136.257 66.7543 135.973C66.739 135.651 66.808 134.793 66.8387 134.455ZM80.7972 145.018C80.0306 145.455 68.3564 140.71 66.7927 139.745C66.7339 139.256 66.7058 138.765 66.7084 138.273C70.0658 139.929 79.8314 144.052 80.7282 144.014C82.039 143.945 91.3063 133.513 91.9655 132.784C91.9731 133.176 91.9345 133.567 91.8506 133.95C91.7202 134.203 81.3031 144.735 80.7972 145.018ZM17.2901 101.809C17.3438 102.629 17.3821 103.342 17.3821 104.009C17.3821 104.111 17.4225 104.208 17.4944 104.28C17.5662 104.352 17.6637 104.392 17.7654 104.392C17.867 104.392 17.9645 104.352 18.0364 104.28C18.1083 104.208 18.1486 104.111 18.1486 104.009C18.1486 103.296 18.1103 102.591 18.0567 101.755C18.0495 101.654 18.0023 101.559 17.9254 101.492C17.8485 101.425 17.7482 101.392 17.6466 101.399C17.5449 101.406 17.4503 101.453 17.3834 101.53C17.3166 101.607 17.283 101.707 17.2901 101.809ZM134.086 86.44C134.036 86.4429 133.987 86.4558 133.942 86.4779C133.897 86.5 133.857 86.5309 133.824 86.5688C133.792 86.6067 133.767 86.6507 133.751 86.6984C133.735 86.746 133.73 86.7963 133.734 86.8463C133.78 87.5515 133.826 88.3103 133.826 89.0462C133.826 89.1479 133.866 89.2453 133.938 89.3172C134.01 89.3891 134.107 89.4295 134.209 89.4295C134.311 89.4295 134.408 89.3891 134.48 89.3172C134.552 89.2453 134.592 89.1479 134.592 89.0462C134.592 88.2797 134.546 87.5132 134.493 86.7926C134.49 86.7426 134.477 86.6936 134.455 86.6486C134.433 86.6036 134.402 86.5635 134.364 86.5306C134.326 86.4978 134.282 86.4728 134.234 86.4573C134.187 86.4417 134.136 86.4358 134.086 86.44ZM15.3048 99.9003C15.4065 99.9003 15.5039 99.8599 15.5758 99.788C15.6477 99.7161 15.6881 99.6187 15.6881 99.517C15.6881 99.4154 15.6477 99.3179 15.5758 99.246C15.5039 99.1741 15.4065 99.1338 15.3048 99.1338C14.3773 99.1338 13.6031 99.2027 12.8366 99.1874C12.7342 99.1874 12.6359 99.2275 12.5628 99.2992C12.4897 99.3708 12.4477 99.4683 12.4456 99.5707C12.4456 99.6723 12.486 99.7698 12.5579 99.8417C12.6298 99.9136 12.7273 99.9539 12.8289 99.9539C13.6184 99.9693 14.4846 99.9386 15.3048 99.9003ZM131.71 84.1711C130.79 84.1711 130.016 84.2247 129.242 84.2324C129.14 84.2324 129.043 84.2728 128.971 84.3447C128.899 84.4165 128.859 84.514 128.859 84.6157C128.859 84.7173 128.899 84.8148 128.971 84.8867C129.043 84.9586 129.14 84.9989 129.242 84.9989C130.07 84.9989 130.928 84.9989 131.756 84.9376C131.858 84.9315 131.953 84.8853 132.02 84.8091C132.088 84.7329 132.122 84.633 132.116 84.5313C132.11 84.4297 132.064 84.3346 131.988 84.2671C131.912 84.1995 131.812 84.165 131.71 84.1711ZM17.0832 95.1631C17.1292 95.8683 17.1751 96.6272 17.1751 97.3631C17.1771 97.4641 17.2181 97.5605 17.2896 97.6319C17.361 97.7034 17.4574 97.7444 17.5584 97.7463C17.6601 97.7463 17.7575 97.706 17.8294 97.6341C17.9013 97.5622 17.9417 97.4647 17.9417 97.3631C17.9417 96.5965 17.8957 95.83 17.8497 95.1095C17.8426 95.0078 17.7954 94.9132 17.7185 94.8463C17.6416 94.7795 17.5412 94.7459 17.4396 94.753C17.3379 94.7602 17.2433 94.8074 17.1764 94.8843C17.1096 94.9612 17.076 95.0615 17.0832 95.1631ZM134.385 82.4004C134.385 81.6339 134.339 80.8673 134.286 80.1468C134.279 80.0451 134.231 79.9505 134.154 79.8836C134.078 79.8168 133.977 79.7832 133.876 79.7904C133.774 79.7975 133.679 79.8447 133.612 79.9216C133.546 79.9985 133.512 80.0988 133.519 80.2005C133.565 80.9057 133.611 81.6645 133.611 82.4004C133.611 82.502 133.652 82.5995 133.723 82.6714C133.795 82.7433 133.893 82.7837 133.994 82.7837C134.097 82.7837 134.195 82.7436 134.268 82.6719C134.341 82.6002 134.383 82.5027 134.385 82.4004ZM22.7402 99.8006C22.7905 99.7987 22.84 99.7868 22.8857 99.7657C22.9315 99.7446 22.9726 99.7146 23.0068 99.6776C23.0409 99.6406 23.0675 99.5972 23.0849 99.5499C23.1023 99.5026 23.1101 99.4524 23.1081 99.402C23.1004 99.3017 23.055 99.2081 22.981 99.1398C22.9071 99.0716 22.8101 99.0338 22.7095 99.0341C21.782 99.0724 21.0078 99.1031 20.2336 99.0878C20.132 99.0878 20.0345 99.1281 19.9626 99.2C19.8907 99.2719 19.8503 99.3694 19.8503 99.471C19.8503 99.5727 19.8907 99.6702 19.9626 99.742C20.0345 99.8139 20.132 99.8543 20.2336 99.8543C21.0538 99.8696 21.9123 99.839 22.7402 99.8006ZM139.145 84.0714C138.379 84.1098 137.528 84.1328 136.677 84.1328C136.627 84.1307 136.576 84.1389 136.529 84.1568C136.481 84.1748 136.438 84.2021 136.402 84.2372C136.365 84.2723 136.336 84.3144 136.316 84.361C136.296 84.4076 136.286 84.4577 136.286 84.5084C136.286 84.6107 136.326 84.709 136.398 84.7821C136.47 84.8552 136.567 84.8973 136.67 84.8993C137.543 84.8993 138.249 84.8993 139.176 84.838C139.226 84.836 139.276 84.8241 139.322 84.803C139.367 84.7819 139.409 84.752 139.443 84.715C139.477 84.6779 139.503 84.6345 139.521 84.5872C139.538 84.54 139.546 84.4897 139.544 84.4394C139.535 84.3397 139.489 84.247 139.415 84.1791C139.342 84.1112 139.246 84.0729 139.145 84.0714ZM5.12528 77.0883C5.22493 77.165 26.8411 73.9609 27.7686 73.3937C27.82 73.3562 27.861 73.3063 27.8878 73.2486C27.9146 73.191 27.9263 73.1275 27.9219 73.0641C27.9219 72.0752 26.6265 62.7925 26.0056 60.4776C25.9289 60.194 25.8523 59.9104 25.676 59.8107C24.5032 59.1055 3.83751 62.9995 2.6034 63.7967C2.56995 63.8165 2.54105 63.8431 2.5186 63.8748C2.49614 63.9065 2.48063 63.9426 2.47309 63.9807C2.21247 64.9082 4.4584 76.6284 5.12528 77.0883ZM2.94067 64.1646C4.41241 63.4978 23.1694 60.0637 25.3157 60.332C25.8369 61.6734 27.232 71.5003 27.324 72.9414C26.2585 73.2557 5.41656 76.8354 5.33991 76.8507C5.26326 76.8661 5.25559 76.958 5.09462 76.4751C4.42007 74.4515 2.90234 65.897 2.94067 64.1646Z" fill="#F5F5F4"/>
<path d="M29.4549 74.0759C29.4966 73.9984 29.5153 73.9106 29.5086 73.8229C29.5086 72.6041 27.7609 59.0749 27.14 57.9941C27.0913 57.9144 27.0224 57.849 26.9403 57.8046C26.8582 57.7602 26.7658 57.7383 26.6724 57.7411C24.1045 57.4268 2.44239 61.6581 1.01664 62.6469C0.817347 62.7849 0.848008 63.1298 0.871004 63.4978C0.993648 65.5137 3.1706 78.7747 3.93713 78.6981C4.02144 78.6981 3.99078 78.6367 3.79149 79.043C2.5957 81.5036 0.326767 89.3835 0.372759 90.9702C0.372759 91.6371 0.526065 92.5033 1.18528 92.4573C5.91477 91.8747 29.1023 88.1954 35.7711 86.8233C36.0318 86.7696 36.2004 86.532 36.1927 86.1411C36.114 85.4898 35.9166 84.8585 35.6102 84.2784C34.675 82.5231 30.7964 75.5706 29.4549 74.0759ZM3.98312 78.4604C3.38522 77.6939 1.18528 64.4866 1.35392 63.0225C3.04029 62.1487 24.4112 58.0171 26.6494 58.3543C27.2627 60.0407 28.8494 72.2209 28.949 73.685C26.2355 74.6201 7.44784 77.6556 3.98312 78.4604ZM4.32039 78.6904C4.96428 78.5294 26.8947 74.8577 28.903 74.3288C29.9992 75.3483 34.951 84.1558 35.2729 84.907C30.873 85.6735 4.77264 90.0351 0.932326 90.6176C0.985983 88.295 3.36989 80.1775 4.32039 78.6904Z" fill="#F5F5F4"/>
<path d="M7.20237 86.6394C7.86925 86.5398 22.0194 84.8381 27.1322 83.4507C27.1637 83.4425 27.1907 83.4222 27.2072 83.3942C27.2237 83.3661 27.2284 83.3327 27.2203 83.3012C27.2122 83.2697 27.1919 83.2427 27.1638 83.2261C27.1358 83.2096 27.1024 83.2049 27.0708 83.213C26.0667 83.42 13.8175 85.0527 7.18704 86.4018C7.16872 86.3985 7.14989 86.3994 7.13198 86.4045C7.11407 86.4095 7.09755 86.4186 7.08366 86.431C7.06978 86.4434 7.05889 86.4588 7.05184 86.476C7.04478 86.4932 7.04174 86.5118 7.04293 86.5304C7.04413 86.549 7.04954 86.567 7.05875 86.5832C7.06796 86.5994 7.08073 86.6132 7.0961 86.6237C7.11146 86.6342 7.12901 86.6411 7.14742 86.6438C7.16584 86.6465 7.18463 86.645 7.20237 86.6394ZM17.5429 33.3042C17.2565 33.9509 17.0157 34.6169 16.8223 35.2972C16.8109 35.4064 16.841 35.5158 16.9066 35.6038C17.6808 36.7689 25.6144 45.7143 27.6841 46.9715C27.9677 47.1478 28.305 47.2704 28.5119 47.0174C30.0154 45.1467 31.9774 43.6969 34.2072 42.8092C36.0221 42.1671 37.9249 41.8077 39.8489 41.7437C41.382 41.6057 41.6503 41.4524 42.2405 40.4483C42.9367 39.1268 43.8605 37.9384 44.9693 36.9376C46.3832 35.7013 47.9525 34.6551 49.6375 33.8255C49.7133 33.7825 49.7726 33.7154 49.806 33.6348C49.8393 33.5543 49.8448 33.4649 49.8215 33.3809C49.5623 32.7215 49.2197 32.0981 48.802 31.5259C49.0779 31.4339 49.3845 31.3496 49.3845 31.0736C49.3845 30.3071 42.7004 20.6335 40.8454 18.8091C40.6538 18.6175 40.3778 18.3645 40.1249 18.3799C36.2922 18.5945 32.5592 22.2125 30.3976 25.3706C27.9217 25.2786 26.3196 25.0563 23.4988 26.2445C21.5074 27.0898 19.712 28.3371 18.2251 29.9085C17.9951 30.1461 16.4314 31.8018 16.4084 31.9321C16.3854 32.0624 16.4314 32.0624 17.5429 33.3042ZM48.2041 33.0896C45.0077 33.6338 42.9687 36.2937 41.4663 39.1835C40.7994 40.4713 40.8607 40.5326 40.1555 40.5173C38.9224 40.4474 37.6854 40.4936 36.4608 40.6552C35.5627 40.7895 34.6796 41.0103 33.824 41.3145C31.877 42.0043 29.6464 44.2119 28.4583 45.8523C28.433 45.8861 28.4009 45.9141 28.3641 45.9346C28.3273 45.955 28.2865 45.9675 28.2446 45.9711C28.2026 45.9747 28.1603 45.9694 28.1205 45.9556C28.0807 45.9417 28.0443 45.9196 28.0137 45.8906C25.5224 43.3228 21.1149 38.8156 18.8996 36.2247C18.7923 36.1097 18.9763 35.9411 19.0836 36.0637C20.517 37.5968 24.2193 41.2685 28.19 45.2621C29.5314 43.5527 31.601 41.4831 33.6477 40.7626C34.7637 40.3645 35.925 40.107 37.1047 39.996C38.2095 39.9121 39.319 39.9121 40.4238 39.996C40.8761 39.4748 43.1143 33.5572 48.1888 32.898C48.2036 32.9089 48.2158 32.923 48.2245 32.9392C48.2331 32.9555 48.238 32.9735 48.2387 32.9919C48.2395 33.0103 48.236 33.0287 48.2287 33.0456C48.2214 33.0625 48.2104 33.0775 48.1964 33.0896H48.2041ZM40.1172 19.0008C41.6502 20.0739 47.8898 29.3106 48.7023 30.928C47.2924 31.3747 45.9313 31.9628 44.6397 32.6833C43.4166 33.2965 42.3457 34.1747 41.505 35.2541C40.6643 36.3335 40.0749 37.5869 39.7799 38.9229C37.0281 34.4463 33.1878 29.5176 30.6352 25.8919C30.7885 25.7922 35.0964 19.2997 40.1172 19.0008ZM23.6674 26.6661C26.4653 25.5393 28.0137 25.7999 30.3286 25.8995C32.6282 29.8242 36.7598 35.3585 39.481 38.9842C36.9694 38.3899 34.3265 38.7534 32.0686 40.0037C30.7119 40.7702 29.0562 42.6099 28.0367 43.752C26.5649 42.5716 18.0718 33.5265 16.7073 31.9934C18.8076 29.6172 20.747 27.8312 23.6674 26.6354V26.6661ZM9.63994 46.1589C9.45048 46.026 9.22651 45.9509 8.9952 45.9427C8.7639 45.9345 8.53519 45.9937 8.33683 46.1129C8.19238 46.1774 8.06204 46.2696 7.95324 46.3844C7.84443 46.4992 7.75931 46.6343 7.70272 46.782C7.64614 46.9297 7.61919 47.0871 7.62344 47.2452C7.62768 47.4033 7.66302 47.559 7.72744 47.7035C7.79186 47.8479 7.88411 47.9783 7.99891 48.0871C8.11371 48.1959 8.24881 48.281 8.39651 48.3376C8.5442 48.3942 8.7016 48.4211 8.85971 48.4169C9.01782 48.4127 9.17354 48.3773 9.31799 48.3129C9.54875 48.2624 9.75873 48.143 9.92007 47.9705C10.0814 47.798 10.1865 47.5805 10.2214 47.3469C10.2564 47.1133 10.2194 46.8746 10.1156 46.6624C10.0117 46.4502 9.84586 46.2747 9.63994 46.1589ZM9.13403 47.692C8.59745 47.8606 8.27551 47.692 8.1452 47.4314C7.89991 46.8871 8.20652 46.0516 9.00372 46.2969C9.56328 46.5039 10.0155 47.4467 9.13403 47.7303V47.692ZM48.618 11.0825C48.8403 11.5347 49.8751 11.3661 50.3274 11.2205C50.565 11.1438 50.7183 11.0595 50.7413 10.8295C50.8103 10.2546 50.8869 5.27219 50.6263 4.78927C50.5994 4.73864 50.5581 4.69708 50.5077 4.66981C50.4572 4.64253 50.3998 4.63076 50.3427 4.63597C49.5249 4.6337 48.7112 4.75252 47.9281 4.98857C47.6139 5.18021 48.3421 10.5766 48.618 11.0825ZM48.0891 5.17254C48.7972 5.07124 49.5133 5.03787 50.2277 5.07289C50.2737 5.64012 50.1511 10.5536 50.1434 10.6302C49.8196 10.7463 49.4738 10.7882 49.1316 10.7529C49.0779 10.5766 48.986 10.1013 48.871 9.50344C48.5332 8.0748 48.2722 6.6291 48.0891 5.17254ZM8.8964 39.6894C8.96995 39.7271 9.05139 39.7467 9.13403 39.7467C9.21666 39.7467 9.2981 39.7271 9.37165 39.6894C9.66779 39.5067 9.90266 39.2398 10.0462 38.9229C10.0657 38.8722 10.0717 38.8172 10.0636 38.7635C10.0556 38.7098 10.0337 38.659 10.0002 38.6163C9.63227 38.1793 5.61565 33.5265 5.12507 33.8178C4.52274 34.2077 3.95127 34.6434 3.41571 35.1209C3.39412 35.1402 3.37683 35.1638 3.36495 35.1902C3.35306 35.2166 3.34685 35.2452 3.34672 35.2742C3.33139 35.6728 7.7926 39.2448 8.8964 39.6894ZM5.21705 34.0171C5.77662 34.4233 7.66229 36.7536 9.40998 38.8156C9.33479 38.934 9.2417 39.04 9.13403 39.1298C7.29655 37.9538 5.54216 36.6527 3.88329 35.2359C4.29914 34.7992 4.7448 34.392 5.21705 34.0171ZM17.2592 17.1074C17.4279 14.1333 19.1602 12.7535 20.9693 12.4009C20.4557 14.2866 20.54 16.7395 22.4027 17.0538C23.2918 17.1994 23.7288 16.7395 24.3727 16.2029C27.1245 13.9033 24.9016 11.6037 21.7971 11.7647C22.9546 8.59127 25.6298 6.00806 29.1788 5.92374C29.2113 5.92374 29.2425 5.91082 29.2655 5.88782C29.2885 5.86482 29.3014 5.83362 29.3014 5.8011C29.3014 5.76857 29.2885 5.73737 29.2655 5.71437C29.2425 5.69137 29.2113 5.67845 29.1788 5.67845C25.3461 5.6018 22.3337 8.36131 21.1456 11.8107C19.0989 12.1633 17.0676 13.6964 17.014 17.0614C17.0109 17.0775 17.0111 17.0941 17.0145 17.1101C17.0179 17.1262 17.0244 17.1414 17.0336 17.1549C17.0429 17.1684 17.0547 17.18 17.0684 17.1889C17.0821 17.1979 17.0975 17.2041 17.1136 17.2071C17.1297 17.2101 17.1463 17.2099 17.1623 17.2065C17.1783 17.2032 17.1935 17.1967 17.2071 17.1874C17.2206 17.1782 17.2322 17.1663 17.2411 17.1526C17.2501 17.1389 17.2562 17.1235 17.2592 17.1074ZM21.6208 12.3089C22.7629 12.2323 24.4646 12.5849 24.9322 13.6197C25.2005 14.2099 24.9322 14.9381 23.9817 15.7353C23.7237 15.9939 23.4293 16.2133 23.1079 16.3869C21.9581 16.8775 20.6856 15.4594 21.6208 12.3089ZM23.8131 120.719C23.0725 120.521 22.2997 120.473 21.5403 120.577C20.7808 120.682 20.0499 120.938 19.3906 121.329C18.7314 121.721 18.1571 122.24 17.7016 122.857C17.246 123.473 16.9184 124.175 16.738 124.92C16.3975 126.468 16.6859 128.088 17.5398 129.423C18.3937 130.759 19.7431 131.701 21.2912 132.041C22.8393 132.382 24.4593 132.093 25.7947 131.239C27.1302 130.385 28.0717 129.036 28.4123 127.488C28.5577 126.741 28.554 125.973 28.4012 125.228C28.2484 124.483 27.9496 123.775 27.5221 123.146C27.0946 122.517 26.5467 121.978 25.9101 121.562C25.2736 121.145 24.5608 120.859 23.8131 120.719ZM26.1817 126.967C25.8741 128.193 25.1378 129.269 24.1059 130C23.074 130.731 21.8146 131.069 20.5553 130.953C19.3994 130.501 18.4398 129.656 17.8453 128.567C17.2508 127.477 17.0596 126.213 17.3052 124.997C17.5921 123.74 18.3215 122.629 19.3602 121.866C20.399 121.103 21.6775 120.74 22.9622 120.842C24.1296 121.324 25.0894 122.203 25.6727 123.323C26.256 124.444 26.4253 125.734 26.151 126.967H26.1817Z" fill="#F5F5F4"/>
<path d="M34.0236 122.904C33.3562 122.674 32.6411 122.618 31.9463 122.743C31.6583 122.083 31.3039 121.453 30.8884 120.865C31.3867 120.413 32.7511 119.156 32.4215 118.565C31.2485 117.162 29.8558 115.958 28.2976 115.001C27.6469 114.636 26.9305 114.405 26.1896 114.319C25.699 114.388 24.5339 116.296 24.2733 116.726C24.1047 116.726 23.5068 116.534 23.4608 116.511C23.4608 115.959 23.2998 113.966 22.8015 113.736C22.2444 113.531 21.6658 113.39 21.0769 113.315C20.5326 113.23 15.6345 114.127 15.2742 114.786C15.0366 115.231 15.5885 116.91 15.7495 117.377C15.3361 117.605 14.9391 117.861 14.5613 118.144C13.7948 118.688 14.0018 118.665 13.8638 118.604C13.697 118.524 13.5184 118.472 13.3349 118.45C12.7226 118.091 12.0046 117.956 11.3036 118.067C10.5984 118.297 8.93501 122.084 8.66673 123.057C8.57892 123.303 8.55518 123.566 8.59774 123.824C8.78171 124.33 10.0082 124.736 10.5217 124.897C10.3799 125.883 10.3799 126.885 10.5217 127.871C9.84718 128.055 8.44443 128.469 8.52108 129.159C8.59774 129.849 10.3914 134.402 11.135 134.762C11.5423 134.99 11.9927 135.13 12.4573 135.174C12.922 135.217 13.3906 135.163 13.8331 135.015C14.0824 134.891 14.3231 134.75 14.5537 134.593C14.8603 134.823 15.1822 135.03 15.5118 135.23C15.2742 135.82 14.7453 137.138 14.9139 137.736C14.9983 138.05 15.2512 138.15 15.6038 138.28C16.5773 138.633 21.8204 139.89 22.6176 139.752C22.9165 139.706 23.0775 139.392 23.1695 139.093C23.3398 138.413 23.44 137.716 23.4684 137.016C23.8621 136.977 24.2535 136.918 24.6412 136.839C24.878 137.256 25.1809 137.631 25.5381 137.951C25.929 138.227 26.2586 138.089 26.7032 137.805C26.9178 138.081 27.2398 138.464 27.5847 138.503C28.4509 138.602 32.0306 135.23 32.3985 134.54C32.7051 133.965 31.586 132.938 31.0877 132.485C31.6267 131.674 32.0499 130.792 32.3449 129.864C32.8977 129.947 33.4572 129.978 34.0159 129.956C34.2688 129.956 34.5601 129.864 34.6674 129.626C35.135 128.561 34.9971 124.521 34.6674 123.494C34.6215 123.195 34.2765 122.996 34.0236 122.904ZM34.2075 123.609C34.4681 124.606 34.5525 128.369 34.1692 129.343C33.5065 129.408 32.8377 129.377 32.1839 129.251C32.1141 129.239 32.0423 129.253 31.9827 129.292C31.9232 129.33 31.8801 129.389 31.8619 129.458C31.5567 130.494 31.0827 131.473 30.4592 132.355C30.4148 132.414 30.3947 132.487 30.4033 132.56C30.4119 132.633 30.4484 132.7 30.5052 132.746C31.043 133.172 31.4999 133.692 31.8543 134.279C31.471 134.908 28.4739 137.652 27.646 137.882C27.5234 137.882 27.1861 137.422 27.1018 137.299C26.8186 136.874 26.5626 136.431 26.3353 135.973C26.3021 135.906 26.2452 135.855 26.1757 135.828C26.1062 135.801 26.0292 135.801 25.9597 135.828C23.7367 136.663 22.8935 136.172 22.8935 136.724C22.8945 137.551 22.7599 138.372 22.4949 139.154C20.6936 138.958 18.9196 138.562 17.2059 137.974C17.2886 137.155 17.5171 136.359 17.8804 135.621C18.1104 135.107 17.1905 135.253 15.4735 133.505C15.4183 133.454 15.3457 133.425 15.2704 133.425C15.1951 133.425 15.1225 133.454 15.0673 133.505C14.3007 134.134 13.3042 134.747 13.1049 134.647C12.714 134.455 10.9127 130.37 10.8053 129.542C11.3505 129.162 11.9695 128.901 12.622 128.775C12.6916 128.756 12.7517 128.712 12.7912 128.651C12.8306 128.59 12.8468 128.517 12.8367 128.446C12.6488 127.36 12.6488 126.251 12.8367 125.165C12.8484 125.098 12.8343 125.029 12.7973 124.973C12.7604 124.916 12.7032 124.875 12.6374 124.858C12.0595 124.707 11.5031 124.483 10.9816 124.192C10.813 124.069 10.8283 124.077 10.8437 123.946C11.3398 122.157 12.1355 120.465 13.1969 118.941C13.6108 118.826 14.73 119.646 15.1132 119.937C15.1533 119.976 15.2069 119.998 15.2627 119.998C15.3185 119.998 15.3721 119.976 15.4122 119.937C15.7644 119.572 16.1436 119.234 16.5467 118.926C17.7118 118.044 18.0261 118.159 17.9264 117.852C17.574 117.083 17.3761 116.253 17.3439 115.407C17.4627 115.308 17.5975 115.231 17.7424 115.177C18.4581 114.894 19.1933 114.664 19.9424 114.487C20.8503 114.234 21.7835 114.083 22.7249 114.035C22.8859 114.104 23.0315 114.802 23.0698 115.016C23.3535 116.549 23.1618 116.864 23.3841 116.887C25.5687 117.101 26.0133 117.707 26.1666 117.438C26.5917 116.695 27.0871 115.994 27.646 115.346C27.807 115.185 27.7993 115.108 28.2822 115.384C29.7249 116.327 31.017 117.482 32.1149 118.811C32.2299 119.01 31.2334 120.068 30.5052 120.689C30.2522 120.911 30.6125 121.011 31.2717 122.268C31.9309 123.525 31.7776 123.877 32.1302 123.801C32.81 123.638 33.5095 123.573 34.2075 123.609ZM140.594 59.5578C138.987 58.9014 137.302 58.4557 135.581 58.2317C134.324 58.0324 132.845 57.8331 131.595 57.6721C132.799 55.9704 136.363 51.6625 136.961 50.6123C137.13 50.3287 136.808 49.9301 136.57 49.6925C135.236 48.2668 132.661 47.7302 130.683 47.4236C129.549 47.2396 124.811 46.657 124.007 47.0403C123.041 47.5002 115.897 58.2317 115.682 59.8644C115.682 60.1403 115.774 60.2476 116.042 60.3473C117.169 60.7612 122.251 61.4051 123.386 61.6734C121.853 64.3562 115.038 73.4243 114.371 74.7044C114.21 75.0263 114.31 75.218 114.502 75.2793C115.191 75.5531 115.901 75.7735 116.625 75.9385C116.901 76.0228 117.506 75.6472 118.388 75.1107C122.343 72.7344 139.314 61.5277 140.617 60.079C140.653 60.045 140.682 60.0037 140.7 59.9578C140.719 59.9119 140.727 59.8626 140.725 59.8131C140.723 59.7637 140.71 59.7153 140.687 59.6712C140.665 59.6271 140.633 59.5885 140.594 59.5578ZM124.122 68.7561C117.606 73.0564 115.406 74.3135 115.329 74.3671C116.38 72.7651 122.903 63.8273 124.022 61.6887C124.041 61.6474 124.051 61.6023 124.051 61.5566C124.051 61.5109 124.041 61.4659 124.021 61.4247C124.001 61.3836 123.972 61.3474 123.937 61.3188C123.901 61.2902 123.859 61.2699 123.815 61.2594C123.048 60.9835 117.468 60.3856 116.15 59.918C116.318 58.4923 123.278 47.7149 124.122 47.2856C124.965 46.8563 133.144 47.8298 134.677 48.926C133.872 50.4974 129.426 56.0011 128.705 57.2812C128.56 57.5418 128.514 57.7947 128.797 57.8637C129.081 57.9327 136.286 58.7759 137.858 59.2895C135.941 60.8915 126.268 67.315 124.122 68.7255V68.7561ZM74.9486 21.8904C74.9486 21.9594 74.9946 22.0437 75.1096 22.4883C75.1398 22.5848 75.2061 22.6658 75.2947 22.7144C75.3833 22.763 75.4873 22.7754 75.5848 22.749C75.6824 22.7205 75.7647 22.6544 75.8136 22.5653C75.8625 22.4762 75.8739 22.3713 75.8455 22.2737C75.7688 21.9748 75.6998 21.7218 75.6538 21.5992C75.6092 21.515 75.5348 21.4505 75.4451 21.4182C75.3555 21.3859 75.257 21.3882 75.169 21.4245C75.0809 21.4609 75.0095 21.5288 74.9688 21.6149C74.9281 21.7011 74.9209 21.7993 74.9486 21.8904Z" fill="#F5F5F4"/>
</svg>
